<?xml version="1.0" standalone="no"?>
<!DOCTYPE svg PUBLIC "-//W3C//DTD SVG 20010904//EN"
 "http://www.w3.org/TR/2001/REC-SVG-20010904/DTD/svg10.dtd">
<svg version="1.0" xmlns="http://www.w3.org/2000/svg"
 width="2539.000000pt" height="2539.000000pt" viewBox="0 0 2539.000000 2539.000000"
 preserveAspectRatio="xMidYMid meet">
<metadata>
Created by potrace 1.11, written by Peter Selinger 2001-2013
</metadata>
<g transform="translate(0.000000,2539.000000) scale(0.100000,-0.100000)"
fill="#000000" stroke="none">
<path d="M10825 25374 c-292 -50 -519 -161 -697 -339 l-66 -65 14 -58 c7 -31
52 -232 99 -447 47 -214 92 -417 100 -450 15 -64 84 -376 91 -410 2 -11 19
-90 39 -175 19 -85 44 -198 55 -250 11 -52 24 -108 28 -125 l8 -30 589 0 c379
0 592 3 600 10 10 8 21 44 50 165 2 8 22 85 45 170 53 198 250 949 289 1100
16 63 49 189 72 279 l42 164 -54 50 c-228 208 -528 355 -839 412 -74 14 -384
13 -465 -1z"/>
<path d="M10329 23096 c-4 -4 -107 -13 -239 -21 -47 -3 -159 -13 -220 -20
-106 -12 -140 -16 -185 -20 -27 -3 -66 -7 -85 -10 -19 -3 -55 -7 -80 -10 -25
-2 -59 -6 -75 -9 -52 -8 -108 -16 -160 -22 -27 -3 -57 -7 -65 -9 -8 -2 -35 -7
-60 -10 -25 -3 -83 -12 -130 -20 -47 -7 -105 -16 -130 -20 -25 -3 -52 -8 -60
-10 -8 -2 -33 -7 -55 -10 -23 -3 -52 -8 -65 -10 -14 -3 -38 -8 -55 -10 -31 -6
-286 -51 -340 -60 -16 -3 -37 -8 -45 -10 -8 -3 -33 -7 -55 -11 -22 -3 -59 -10
-83 -15 -23 -5 -59 -12 -80 -15 -20 -3 -39 -7 -42 -9 -3 -2 -26 -6 -50 -10
-25 -4 -72 -13 -105 -20 -33 -8 -74 -16 -90 -19 -17 -3 -116 -24 -220 -47
-184 -39 -203 -43 -253 -53 -13 -3 -31 -7 -40 -10 -9 -3 -28 -7 -42 -10 -14
-2 -97 -21 -185 -41 -88 -20 -170 -38 -183 -41 -12 -2 -96 -22 -185 -44 -138
-33 -257 -61 -317 -75 -8 -2 -98 -24 -200 -50 -102 -25 -192 -47 -200 -49 -8
-2 -35 -9 -60 -16 -25 -7 -52 -13 -60 -15 -8 -2 -87 -22 -175 -45 -88 -22
-167 -43 -175 -45 -44 -10 -345 -89 -405 -106 -67 -19 -83 -23 -123 -33 -31
-8 -166 -44 -242 -66 -41 -11 -82 -22 -90 -25 -70 -17 -662 -184 -920 -260
-69 -20 -154 -44 -190 -54 -36 -10 -157 -47 -270 -81 -113 -34 -234 -70 -270
-81 -35 -10 -69 -24 -76 -31 -6 -7 -39 -67 -73 -133 -34 -66 -75 -131 -90
-145 -34 -31 -40 -35 -176 -139 -157 -120 -220 -174 -303 -258 -112 -115 -137
-181 -85 -229 14 -13 28 -22 31 -20 2 3 15 1 28 -4 28 -11 18 -18 469 358 190
159 252 207 269 209 23 4 14 2 386 72 280 52 648 120 690 127 14 2 45 9 70 14
25 5 109 21 187 35 152 28 174 32 213 40 14 2 41 7 60 10 19 3 58 10 85 15 28
6 61 12 75 15 14 3 36 7 50 10 14 2 39 7 55 10 174 30 254 48 425 97 96 27
182 51 190 53 15 3 450 127 580 165 36 11 234 67 440 125 206 59 389 111 405
116 17 5 109 31 205 59 96 27 438 124 760 216 322 91 599 170 615 174 29 8
315 89 1250 357 259 74 478 136 488 139 27 6 47 12 113 30 l61 17 -12 59 c-13
59 -18 72 -26 64z"/>
<path d="M11838 23034 c-3 -5 -8 -21 -12 -35 -4 -20 -1 -29 12 -34 15 -6 691
-237 892 -305 47 -15 285 -97 530 -180 245 -83 470 -160 500 -170 30 -10 269
-91 530 -180 261 -89 565 -192 675 -230 110 -37 207 -70 215 -73 13 -5 306
-105 670 -227 124 -42 942 -320 1097 -373 73 -25 136 -48 141 -50 4 -3 28 27
53 66 100 155 136 213 147 233 12 24 67 -9 -933 559 -433 247 -444 252 -490
264 -22 5 -87 24 -145 41 -96 28 -314 88 -350 95 -8 2 -69 17 -135 33 -66 16
-138 33 -160 38 -22 4 -44 8 -50 10 -90 21 -240 54 -275 59 -24 4 -47 8 -51
10 -3 2 -41 11 -85 20 -43 8 -124 24 -179 35 -55 11 -113 22 -130 25 -39 6
-133 24 -165 30 -28 6 -38 8 -165 29 -49 9 -101 18 -115 21 -14 3 -95 16 -180
31 -85 14 -168 28 -185 30 -16 3 -41 7 -55 9 -25 3 -73 11 -120 20 -14 2 -43
7 -65 10 -23 3 -50 7 -60 9 -11 2 -56 9 -100 16 -44 6 -91 13 -105 15 -23 4
-149 23 -195 30 -11 2 -44 6 -74 10 -30 4 -61 8 -70 10 -9 1 -38 6 -66 9 -85
12 -119 17 -145 21 -14 3 -48 7 -76 10 -28 3 -61 7 -73 10 -13 2 -49 7 -80 11
-31 3 -63 7 -71 9 -8 1 -44 6 -80 10 -36 4 -73 9 -83 11 -60 11 -135 15 -139
8z"/>
<path d="M10448 22746 c-40 -21 -131 -69 -203 -106 -71 -37 -179 -93 -240
-125 -190 -100 -336 -176 -455 -238 -123 -64 -290 -151 -435 -227 -49 -26
-153 -80 -230 -120 -77 -40 -171 -90 -210 -110 -38 -21 -142 -75 -230 -120
-88 -45 -196 -101 -240 -125 -90 -48 -243 -128 -415 -217 -121 -64 -270 -141
-460 -241 -130 -68 -267 -139 -417 -218 -56 -29 -101 -54 -100 -55 1 -1 38 -5
82 -8 44 -3 107 -8 140 -11 33 -2 98 -7 145 -10 82 -5 143 -9 280 -20 36 -3
101 -8 145 -10 44 -3 109 -8 145 -10 72 -6 155 -12 275 -20 44 -3 100 -8 125
-10 25 -2 88 -6 140 -9 52 -4 115 -9 140 -11 25 -3 83 -7 130 -10 91 -6 204
-13 285 -20 28 -2 97 -6 155 -10 58 -4 123 -9 145 -11 22 -2 81 -6 130 -9 50
-3 110 -7 135 -10 25 -2 92 -7 150 -10 58 -4 121 -8 140 -10 19 -2 80 -6 135
-10 55 -3 120 -7 145 -10 39 -4 87 -7 252 -19 42 -4 43 -3 73 134 21 97 29
133 59 260 23 96 73 314 81 350 2 8 17 76 35 150 17 74 33 145 36 158 2 13 18
83 35 155 17 73 37 159 44 192 8 33 23 98 34 145 11 47 22 97 25 110 2 14 30
132 60 263 31 130 56 245 56 255 0 16 -12 17 -124 17 l-124 0 -74 -39z"/>
<path d="M11004 22775 c-4 -11 -51 -212 -58 -248 -3 -12 -19 -83 -36 -157 -17
-74 -33 -142 -35 -150 -2 -8 -13 -58 -25 -110 -12 -52 -23 -102 -25 -110 -9
-38 -76 -327 -80 -345 -3 -11 -16 -72 -31 -135 -14 -63 -27 -122 -29 -130 -2
-8 -11 -46 -20 -85 -9 -38 -18 -77 -20 -85 -2 -8 -13 -53 -24 -100 -11 -47
-22 -97 -24 -110 -3 -14 -14 -63 -26 -110 -11 -47 -22 -96 -25 -110 -2 -14
-13 -62 -24 -108 -11 -45 -17 -84 -13 -86 6 -4 75 -2 356 9 83 3 215 8 295 10
80 3 201 7 270 10 126 5 260 10 555 20 88 3 210 8 270 10 61 3 182 7 270 10
88 3 210 7 270 10 61 2 191 7 290 10 99 3 223 8 275 10 52 2 172 7 265 10 345
12 377 14 381 17 1 2 -38 35 -89 73 -51 39 -198 151 -327 250 -129 99 -302
232 -385 295 -82 62 -152 116 -155 119 -3 4 -67 53 -143 111 -76 58 -202 154
-280 214 -78 59 -164 125 -192 146 -27 21 -203 155 -390 299 -187 144 -427
327 -534 408 l-193 148 -155 0 c-99 0 -157 -3 -159 -10z"/>
<path d="M11716 22761 c5 -5 59 -47 119 -93 183 -139 327 -250 381 -292 28
-23 64 -50 79 -61 16 -11 63 -47 105 -80 43 -33 158 -121 256 -196 99 -75 231
-177 294 -225 63 -49 261 -200 440 -337 179 -137 339 -260 355 -273 17 -12
149 -114 295 -225 146 -111 277 -212 293 -225 27 -23 74 -26 162 -10 49 9 217
35 260 41 22 2 51 7 65 9 22 4 122 20 203 32 48 7 91 14 117 19 14 2 43 7 65
10 23 3 50 7 62 9 12 3 43 8 70 12 26 3 57 8 68 10 11 3 40 7 65 9 25 3 54 7
66 10 11 2 112 18 225 35 112 17 211 32 219 35 8 2 40 7 70 10 30 3 62 8 70
10 8 2 35 7 60 10 25 3 70 10 100 15 30 5 69 11 85 14 62 9 121 18 139 22 11
2 40 6 65 9 25 3 60 9 76 14 29 8 28 9 -35 29 -36 11 -238 80 -450 152 -212
72 -410 140 -440 150 -30 10 -282 95 -560 190 -278 94 -622 211 -765 260 -143
48 -474 161 -735 250 -261 88 -520 176 -575 195 -55 19 -280 95 -500 170 -220
75 -452 154 -515 175 -63 21 -168 57 -233 79 -124 43 -137 47 -121 32z"/>
<path d="M20058 22495 c-2 -1 -41 -5 -88 -9 -47 -3 -96 -8 -110 -10 -14 -3
-47 -7 -75 -11 -27 -3 -72 -10 -100 -15 -27 -5 -62 -12 -77 -14 -57 -9 -196
-38 -273 -56 -72 -17 -138 -20 -645 -25 -311 -3 -653 -7 -760 -10 -415 -9
-678 -16 -760 -20 -47 -2 -157 -6 -245 -10 -175 -7 -225 -9 -408 -20 -67 -5
-128 -8 -134 -8 -7 0 -13 -1 -13 -3 0 -2 136 -82 205 -120 22 -12 137 -77 255
-144 118 -67 235 -134 260 -148 191 -108 481 -273 508 -290 11 -7 -26 -73
-155 -278 -94 -148 -175 -278 -180 -289 -6 -11 -14 -54 -18 -95 -4 -41 -9 -84
-11 -95 -2 -11 -6 -47 -9 -80 -3 -33 -8 -71 -10 -85 -2 -14 -7 -53 -10 -87 -3
-34 -7 -70 -9 -80 -2 -10 -7 -52 -11 -93 -4 -41 -9 -83 -10 -92 -2 -9 -6 -45
-10 -80 -3 -35 -7 -74 -10 -88 -2 -14 -7 -52 -10 -85 -3 -33 -8 -73 -10 -90
-4 -26 -17 -143 -30 -270 -3 -22 -7 -56 -10 -75 -2 -19 -7 -60 -10 -90 -3 -30
-8 -72 -10 -92 -3 -21 -7 -55 -10 -75 -2 -21 -7 -63 -10 -93 -3 -30 -8 -73
-11 -95 -4 -22 -7 -56 -9 -75 -5 -58 -15 -143 -20 -180 -3 -19 -8 -57 -10 -85
-3 -27 -7 -66 -9 -85 -3 -19 -7 -60 -11 -90 -6 -52 -10 -92 -20 -170 -7 -56
-16 -142 -20 -182 -2 -20 -6 -54 -9 -75 -3 -21 -8 -63 -11 -93 -6 -58 -13
-124 -20 -175 -2 -16 -6 -57 -10 -90 -3 -33 -9 -76 -11 -95 -3 -19 -7 -51 -9
-71 -2 -20 -6 -65 -10 -100 -4 -35 -9 -75 -10 -89 -1 -14 -5 -43 -8 -65 -7
-43 -15 -109 -22 -190 -3 -27 -7 -61 -10 -75 -2 -14 -7 -54 -10 -90 -4 -36 -8
-76 -10 -90 -2 -14 -6 -52 -10 -85 -3 -33 -8 -71 -10 -85 -2 -14 -7 -52 -10
-85 -5 -53 -17 -162 -30 -265 -2 -19 -7 -60 -10 -90 -3 -30 -8 -72 -10 -92
-10 -76 -14 -114 -21 -178 -3 -36 -8 -74 -10 -85 -2 -11 -6 -45 -9 -75 -3 -30
-7 -68 -9 -85 -3 -16 -7 -61 -11 -100 -4 -38 -9 -77 -10 -85 -2 -8 -6 -44 -10
-80 -3 -36 -8 -76 -10 -90 -2 -14 -6 -54 -10 -90 -4 -36 -9 -78 -11 -95 -2
-16 -6 -55 -9 -85 -3 -30 -8 -66 -10 -80 -3 -14 -8 -47 -10 -75 -7 -70 -14
-137 -25 -225 -5 -41 -12 -100 -15 -130 -7 -75 -16 -150 -20 -180 -2 -14 -9
-68 -15 -120 -6 -52 -13 -115 -16 -140 -3 -25 -7 -61 -9 -80 -2 -19 -6 -57 -9
-85 -3 -27 -8 -72 -11 -100 -3 -27 -8 -66 -10 -85 -3 -19 -9 -75 -15 -125 -5
-49 -12 -106 -14 -125 -3 -19 -7 -60 -10 -90 -3 -30 -7 -71 -10 -90 -6 -42
-13 -104 -21 -180 -4 -30 -10 -89 -15 -130 -5 -41 -12 -100 -15 -130 -3 -30
-8 -66 -10 -80 -2 -14 -6 -54 -10 -90 -4 -36 -8 -76 -10 -90 -2 -14 -6 -50
-10 -80 -3 -30 -8 -71 -10 -90 -2 -19 -7 -60 -10 -90 -6 -55 -10 -91 -19 -165
-7 -57 -17 -144 -22 -185 -2 -19 -6 -53 -8 -75 -2 -22 -7 -65 -11 -95 l-6 -54
35 46 c23 30 37 61 41 88 3 23 7 54 9 69 3 14 7 48 11 76 3 27 7 57 9 65 3 8
7 38 11 65 3 28 8 64 10 80 3 17 7 48 10 70 3 22 10 72 15 110 15 108 19 136
25 185 3 25 10 70 15 100 5 30 12 78 15 105 4 28 8 61 11 75 2 14 8 59 14 101
6 41 12 84 14 95 2 10 7 46 10 79 4 33 9 67 11 75 2 8 6 38 10 65 3 28 13 97
21 155 9 58 17 119 19 135 3 17 9 62 15 100 5 39 13 93 16 120 3 28 7 57 9 65
5 26 14 93 20 135 4 33 27 201 50 358 3 20 7 54 10 75 3 20 10 65 15 99 6 34
12 83 15 110 3 26 7 57 9 69 2 12 7 45 11 74 4 29 9 62 11 74 2 12 6 42 9 67
3 25 7 54 9 65 2 10 7 48 12 84 4 36 8 67 9 70 1 3 5 30 9 60 9 63 12 87 22
150 3 25 8 59 9 75 2 17 5 32 6 35 1 3 1 8 0 12 0 4 4 31 9 60 5 29 12 73 15
98 3 25 8 56 10 70 2 14 7 45 10 70 3 25 8 56 10 70 6 36 13 86 21 155 3 33 8
69 10 80 3 11 11 70 20 130 8 61 17 121 19 135 2 14 7 49 10 79 4 30 8 61 10
70 1 9 6 39 9 66 7 51 14 101 21 145 2 14 7 48 11 75 3 28 8 58 10 69 2 10 6
44 9 75 4 31 8 63 10 71 2 8 7 35 10 60 3 25 8 56 10 70 2 14 6 43 9 65 3 22
13 90 21 150 9 61 18 126 21 145 2 19 6 49 9 65 2 17 7 53 10 80 3 28 8 59 10
70 2 11 7 43 10 70 3 28 10 75 15 105 5 30 12 79 15 109 4 30 8 63 11 74 2 11
8 57 14 101 6 45 13 92 15 106 2 14 7 45 10 70 3 25 13 90 21 145 8 55 17 118
19 140 5 39 14 104 20 136 2 8 6 40 9 70 3 30 8 63 10 75 2 12 7 45 11 74 4
29 8 60 10 69 1 9 6 41 10 71 4 30 9 64 11 74 2 11 6 42 9 70 3 28 7 58 10 66
2 8 6 38 10 65 3 28 7 61 10 75 2 14 7 48 10 75 9 79 10 80 62 81 47 1 241 11
397 20 45 3 117 7 161 9 81 4 233 12 380 20 106 6 297 16 570 30 77 3 160 8
185 11 25 2 83 6 130 9 47 3 99 7 115 10 17 2 64 6 105 10 41 3 100 8 130 10
30 3 82 7 115 10 33 2 94 7 135 10 41 4 115 8 164 10 l89 3 53 -39 c29 -21 58
-39 64 -39 5 0 10 -3 10 -7 0 -5 10 -13 23 -19 12 -6 63 -36 112 -66 50 -30
113 -67 140 -83 28 -15 70 -39 95 -53 25 -14 62 -36 82 -49 21 -12 40 -23 43
-23 3 0 56 -29 118 -64 119 -67 237 -131 318 -173 l49 -26 -5 -71 c-8 -106
-14 -168 -20 -196 -3 -14 -7 -44 -10 -67 -11 -98 -22 -123 -78 -181 -198 -204
-372 -470 -467 -713 -37 -96 -85 -254 -96 -318 -3 -14 -7 -33 -9 -41 -6 -19
-23 -143 -33 -230 -8 -76 -9 -537 0 -792 l5 -178 -71 -72 c-78 -79 -164 -204
-214 -310 -31 -65 -96 -247 -106 -298 -3 -14 -8 -36 -11 -50 -10 -45 -23 -114
-30 -160 -3 -25 -8 -56 -10 -70 -4 -31 -13 -120 -21 -220 -3 -41 -7 -246 -8
-454 l-3 -380 -39 -35 c-115 -104 -231 -273 -308 -450 -49 -113 -106 -284
-119 -361 -3 -14 -10 -43 -15 -65 -6 -22 -14 -56 -17 -75 -3 -19 -8 -42 -10
-50 -2 -8 -6 -37 -10 -65 -3 -27 -8 -61 -10 -75 -23 -153 -30 -279 -30 -580 0
-320 5 -428 31 -630 16 -124 17 -115 -34 -158 -156 -131 -423 -264 -530 -264
-160 -2 -374 84 -628 250 l-110 72 -108 -28 -108 -27 -37 -55 c-20 -31 -41
-64 -48 -75 -7 -11 -40 -64 -74 -118 l-62 -99 13 -56 c8 -31 15 -65 17 -75 2
-9 28 -117 59 -240 31 -122 57 -226 58 -232 2 -5 13 -56 26 -113 17 -73 32
-111 50 -132 14 -15 83 -94 154 -174 71 -80 136 -146 145 -146 9 0 52 9 96 19
131 30 448 102 470 107 18 3 73 16 85 19 37 10 91 23 295 70 132 31 247 58
255 60 8 2 26 6 40 9 150 34 705 172 770 192 114 35 191 77 260 144 96 93 140
174 189 345 18 61 52 175 77 255 122 386 153 487 290 925 126 406 176 567 188
610 2 6 6 17 9 25 3 8 21 67 41 130 20 63 108 347 197 630 88 283 164 529 169
545 4 17 24 82 44 145 20 63 38 120 39 125 7 24 50 163 62 200 15 44 86 273
135 435 17 58 36 116 41 130 4 14 51 165 104 335 53 171 118 380 145 465 27
85 55 178 63 205 15 48 133 429 175 565 68 214 114 366 117 379 2 9 32 104 65
211 34 107 79 251 100 320 54 175 278 906 295 960 141 454 158 538 129 661
-32 139 -72 189 -354 450 -222 205 -241 222 -285 264 -23 22 -93 87 -155 145
-63 58 -134 124 -159 148 -25 24 -82 76 -126 117 -44 40 -96 88 -116 106 -20
19 -67 63 -105 98 -38 35 -123 114 -188 175 -66 61 -149 138 -185 172 -36 33
-102 94 -146 134 -98 91 -81 76 -206 190 -57 52 -113 104 -125 115 -11 11 -67
63 -124 115 -58 52 -114 104 -125 115 -12 11 -61 56 -110 100 -48 44 -95 87
-103 95 -8 8 -53 47 -98 86 -105 90 -154 106 -336 110 -69 1 -128 1 -130 -1z"/>
<path d="M9430 22479 c-14 -6 -81 -26 -150 -45 -227 -64 -294 -83 -350 -99
-30 -9 -62 -18 -70 -20 -8 -2 -451 -128 -985 -280 -533 -152 -977 -278 -985
-280 -44 -11 -1161 -329 -1225 -350 -22 -7 -64 -18 -93 -25 -29 -7 -73 -20
-97 -29 l-45 -17 78 -36 c355 -165 508 -236 572 -266 41 -19 131 -61 199 -92
l124 -57 76 39 c42 22 121 64 176 93 55 29 152 79 215 112 302 158 354 185
475 248 72 37 175 91 230 120 55 29 154 81 220 115 247 129 333 174 430 225
108 56 278 145 470 245 203 106 347 181 420 220 39 21 129 68 200 105 141 73
188 103 115 74z"/>
<path d="M4915 21215 c-67 -14 -274 -53 -320 -61 -54 -9 -298 -55 -372 -69
-39 -8 -89 -18 -110 -21 -21 -3 -94 -16 -163 -29 -69 -13 -136 -26 -150 -29
-14 -2 -52 -9 -85 -15 -33 -6 -73 -13 -90 -16 -16 -3 -41 -8 -55 -10 -40 -8
-71 -14 -130 -25 -30 -6 -66 -12 -80 -15 -23 -5 -109 -20 -162 -29 -21 -4 -93
-18 -110 -22 -5 -1 -17 -2 -27 -3 -11 0 -118 -83 -238 -183 -121 -101 -238
-198 -261 -217 -23 -18 -42 -37 -42 -40 0 -4 24 -19 53 -34 118 -61 178 -105
261 -191 70 -73 119 -141 165 -228 35 -66 130 -219 358 -573 108 -168 179
-278 198 -309 20 -32 618 -967 740 -1156 34 -52 184 -287 335 -523 150 -235
276 -424 279 -421 3 3 6 65 7 137 1 73 5 276 8 452 4 176 9 428 11 560 3 132
7 350 10 485 5 266 14 720 20 1060 5 277 16 867 20 1035 7 340 7 487 -1 494
-5 4 -36 2 -69 -4z"/>
<path d="M5219 21187 c-3 -5 -13 -441 -24 -1092 -2 -115 -6 -343 -10 -505 -3
-162 -8 -405 -10 -540 -3 -135 -7 -380 -10 -545 -3 -165 -8 -399 -10 -520 -6
-319 -16 -840 -20 -1060 -6 -268 -6 -457 -1 -480 2 -11 7 -51 11 -90 4 -38 9
-78 11 -88 2 -10 6 -45 9 -78 4 -33 8 -68 10 -78 2 -9 6 -44 10 -76 4 -33 8
-71 10 -85 2 -14 7 -50 10 -80 3 -30 8 -66 10 -80 2 -14 6 -50 10 -80 6 -54
22 -187 30 -245 2 -16 6 -57 10 -90 4 -33 10 -85 15 -115 5 -30 11 -82 14
-115 3 -33 8 -69 10 -80 2 -12 7 -51 10 -87 4 -37 8 -75 10 -85 2 -10 7 -45
10 -78 4 -33 9 -73 11 -90 2 -16 7 -52 10 -80 3 -27 8 -61 10 -75 2 -14 6 -50
9 -80 3 -30 8 -66 10 -80 2 -14 7 -54 11 -90 4 -36 8 -72 10 -80 1 -8 6 -46 9
-85 4 -38 9 -77 11 -85 2 -8 6 -42 10 -75 6 -60 8 -78 20 -170 13 -98 14 -111
20 -160 3 -27 8 -63 10 -80 11 -85 15 -124 20 -165 3 -25 7 -61 10 -80 6 -46
13 -102 20 -170 3 -30 8 -66 10 -80 2 -14 7 -50 10 -80 3 -30 8 -62 10 -70 2
-8 6 -46 10 -83 3 -37 8 -76 10 -85 1 -9 6 -48 10 -87 4 -38 8 -72 10 -75 2
-3 6 -36 10 -75 3 -38 8 -81 10 -95 2 -14 6 -52 10 -85 4 -33 8 -67 10 -75 1
-8 8 -63 15 -121 l13 -106 208 -146 c156 -111 227 -154 286 -177 89 -34 245
-75 318 -84 28 -4 57 -9 65 -11 109 -29 523 -36 656 -11 11 2 38 7 61 11 31 5
41 11 38 23 -4 25 -14 109 -20 172 -3 30 -7 66 -10 80 -2 14 -7 58 -10 98 -4
41 -8 81 -10 90 -1 9 -6 49 -9 87 -4 39 -9 81 -11 95 -2 14 -7 52 -10 85 -6
61 -12 117 -21 190 -10 81 -19 170 -29 270 -3 33 -10 94 -15 135 -6 41 -12
102 -15 135 -3 33 -8 71 -10 85 -2 14 -7 57 -11 95 -3 39 -8 77 -9 85 -2 8 -6
49 -10 90 -4 41 -8 82 -10 90 -2 8 -6 49 -10 90 -3 41 -8 82 -10 90 -2 8 -7
49 -10 90 -4 41 -8 82 -10 90 -2 8 -6 49 -10 90 -4 41 -9 82 -10 91 -2 9 -6
52 -10 95 -4 43 -9 81 -10 84 -2 3 -6 43 -10 90 -4 47 -8 87 -10 90 -2 3 -6
43 -10 90 -4 47 -8 87 -10 90 -1 3 -6 41 -10 84 -4 43 -8 86 -10 96 -2 9 -6
49 -10 89 -3 40 -8 80 -10 89 -1 9 -6 49 -9 87 -4 39 -9 81 -11 95 -2 14 -7
52 -10 85 -6 64 -13 129 -20 185 -3 19 -7 62 -10 95 -3 33 -8 71 -10 85 -2 14
-6 54 -10 90 -4 36 -8 76 -10 90 -2 14 -6 52 -10 85 -3 33 -7 71 -9 85 -2 14
-6 54 -10 90 -4 36 -9 81 -11 100 -3 19 -7 62 -10 95 -3 33 -8 71 -10 85 -2
14 -6 52 -10 85 -3 33 -8 74 -10 90 -2 17 -6 62 -10 100 -4 39 -9 77 -10 86
-2 9 -6 52 -10 95 -4 43 -9 87 -11 98 -2 10 -6 44 -9 75 -3 31 -8 67 -10 81
-2 14 -7 57 -11 95 -3 39 -8 81 -10 95 -1 14 -6 52 -9 85 -3 33 -8 74 -10 90
-2 17 -6 57 -10 90 -3 33 -8 76 -11 95 -3 19 -7 60 -10 90 -2 30 -6 69 -8 85
-3 17 -8 57 -11 90 -4 33 -9 76 -11 95 -4 34 -9 82 -19 185 -3 28 -7 66 -10
85 -2 19 -7 60 -10 90 -4 30 -8 66 -10 80 -2 14 -6 54 -10 90 -4 36 -8 76 -10
90 -2 14 -6 55 -10 92 -3 37 -7 75 -9 85 -2 10 -7 52 -10 93 -4 41 -9 82 -11
90 -2 8 -6 47 -9 85 -3 39 -8 81 -10 95 -2 14 -7 52 -10 85 -4 33 -8 76 -10
95 -11 89 -22 185 -31 285 -3 33 -8 71 -10 85 -2 14 -7 52 -10 85 -3 33 -8 74
-10 90 -2 17 -7 57 -10 90 -3 33 -8 74 -11 90 -3 17 -7 53 -9 80 -3 46 -9 102
-21 195 -2 19 -6 62 -10 95 -3 33 -8 71 -10 85 -5 30 -17 155 -18 189 -1 20
-13 30 -71 56 -38 18 -110 52 -160 75 -49 23 -117 55 -150 70 -55 26 -101 47
-290 135 -38 18 -106 49 -150 70 -44 20 -122 57 -172 80 -51 24 -94 43 -94 42z"/>
<path d="M16978 20905 c-1 -1 -25 -6 -53 -9 -27 -4 -57 -9 -65 -11 -8 -2 -35
-6 -60 -9 -25 -3 -54 -8 -65 -10 -11 -2 -42 -7 -68 -10 -27 -4 -56 -9 -65 -11
-10 -1 -37 -6 -62 -9 -25 -3 -56 -8 -70 -10 -14 -3 -43 -7 -65 -11 -22 -3 -65
-10 -95 -15 -30 -5 -75 -12 -100 -15 -25 -3 -83 -12 -130 -20 -47 -8 -105 -17
-130 -20 -25 -4 -112 -17 -195 -30 -144 -23 -200 -32 -255 -40 -39 -5 -113
-17 -134 -21 -10 -2 -44 -6 -75 -10 -31 -3 -59 -8 -62 -10 -4 -2 -25 -6 -48
-9 -84 -10 -117 -15 -137 -19 -31 -6 -82 -14 -139 -21 -27 -4 -57 -8 -65 -10
-8 -3 -33 -7 -55 -10 -22 -4 -69 -11 -105 -16 -36 -6 -83 -13 -105 -16 -22 -3
-41 -6 -42 -7 -3 -3 -11 -129 -28 -431 -10 -178 -15 -261 -20 -340 -3 -44 -7
-120 -10 -170 -3 -49 -7 -128 -10 -175 -6 -97 -12 -213 -20 -350 -3 -52 -8
-126 -10 -165 -3 -38 -7 -115 -10 -170 -3 -55 -8 -129 -10 -165 -2 -36 -7
-114 -10 -175 -3 -60 -8 -139 -10 -175 -2 -36 -6 -110 -9 -165 -3 -55 -8 -134
-11 -175 -3 -41 -7 -120 -10 -175 -3 -55 -7 -129 -9 -165 -3 -36 -7 -114 -11
-175 -3 -60 -8 -139 -10 -175 -3 -36 -7 -110 -10 -165 -3 -55 -8 -134 -10
-175 -9 -146 -15 -246 -20 -340 -8 -157 -15 -271 -20 -350 -3 -41 -8 -118 -10
-170 -3 -52 -7 -126 -10 -165 -10 -148 -24 -393 -29 -520 -4 -75 -11 -191 -21
-350 -3 -38 -7 -113 -10 -165 -3 -52 -7 -133 -11 -180 -7 -109 -11 -189 -19
-325 -3 -60 -7 -137 -9 -170 -3 -33 -7 -114 -10 -180 -4 -66 -8 -145 -11 -175
-2 -30 -7 -104 -10 -165 -9 -154 -14 -247 -20 -340 -3 -44 -7 -125 -10 -180
-3 -55 -7 -129 -10 -165 -2 -36 -7 -112 -10 -170 -3 -58 -7 -139 -10 -180 -3
-41 -7 -111 -10 -155 -2 -44 -7 -127 -10 -185 -4 -58 -8 -134 -10 -170 -9
-157 -17 -289 -21 -341 -2 -38 0 -60 9 -66 24 -19 255 -77 387 -98 153 -23
478 -24 608 -1 9 2 34 6 55 10 20 4 53 9 73 12 20 2 39 6 43 9 4 2 23 7 42 10
71 12 293 80 374 115 118 51 166 73 262 124 129 69 114 38 138 271 4 33 8 71
10 85 2 14 6 50 10 80 3 30 8 71 10 90 3 19 7 58 10 85 3 28 7 66 10 85 2 19
7 64 11 100 3 36 8 73 10 83 2 10 6 46 9 80 3 34 8 73 10 87 2 14 6 54 10 90
4 36 8 76 10 90 2 14 6 50 10 80 8 72 14 127 20 170 3 19 7 62 10 95 3 33 7
71 9 85 3 14 7 52 11 85 3 33 10 94 15 135 5 41 12 100 15 130 3 30 8 73 11
95 9 74 13 110 19 165 3 30 8 71 10 90 3 19 7 55 10 80 6 60 15 137 20 180 3
19 7 58 10 85 7 66 16 144 20 175 2 14 6 49 9 78 3 28 9 76 12 105 3 28 7 63
9 77 2 14 6 54 10 90 3 36 8 72 10 80 2 8 7 49 11 90 8 95 9 97 29 265 9 77
18 151 20 165 7 77 17 167 20 180 2 8 6 44 10 80 11 114 15 144 20 180 9 70
17 136 20 174 2 22 6 62 10 90 15 121 18 153 30 266 4 36 8 72 10 80 2 8 6 47
10 85 4 39 9 83 11 100 3 16 7 52 9 80 3 27 7 66 9 85 3 19 8 60 11 90 4 30 8
66 10 80 7 52 16 127 20 175 2 28 6 64 9 80 2 17 7 57 11 90 8 83 15 145 29
255 6 45 14 110 21 184 2 22 6 60 9 85 4 25 8 69 11 96 3 28 7 59 9 71 2 12 7
57 11 100 3 43 8 86 10 94 2 8 7 42 10 75 3 33 8 74 10 90 2 17 7 57 10 90 4
33 8 71 11 85 2 14 6 52 9 85 3 33 7 76 10 95 2 19 7 53 9 75 14 121 18 152
21 175 2 14 9 70 15 125 6 55 13 116 15 135 2 19 7 60 10 90 4 30 8 69 10 85
2 17 6 62 10 100 3 39 8 77 10 85 5 16 13 84 20 165 2 28 6 64 9 80 2 17 7 57
11 90 3 33 8 78 11 100 8 65 13 106 19 165 3 30 8 72 10 93 9 73 14 113 25
207 6 52 13 113 15 135 5 35 3 41 -14 42 -10 1 -21 0 -23 -2z"/>
<path d="M6536 20641 c-5 -8 -2 -67 9 -141 2 -19 7 -60 10 -90 3 -30 8 -71 10
-90 3 -19 7 -60 10 -90 5 -52 10 -100 21 -180 5 -35 9 -77 19 -180 2 -30 7
-71 10 -90 6 -44 14 -119 21 -190 2 -30 6 -66 9 -80 2 -14 7 -52 10 -85 3 -33
8 -76 10 -95 3 -19 7 -56 10 -82 3 -27 7 -68 10 -93 3 -25 7 -65 10 -90 3 -25
7 -64 9 -87 11 -106 18 -165 21 -188 2 -14 7 -56 11 -95 3 -38 8 -79 10 -90 2
-11 6 -49 9 -85 3 -36 7 -75 9 -87 3 -12 8 -53 11 -90 4 -37 8 -79 10 -93 2
-14 6 -52 10 -85 3 -33 8 -73 10 -90 2 -16 7 -57 10 -90 3 -33 8 -73 10 -90 2
-16 9 -77 15 -135 5 -58 12 -116 14 -130 3 -14 7 -56 11 -93 3 -37 8 -76 10
-85 1 -9 6 -53 10 -96 4 -43 8 -87 10 -97 2 -9 7 -50 10 -91 4 -40 8 -75 10
-78 2 -3 6 -45 10 -94 3 -50 8 -92 10 -95 2 -5 11 -82 20 -186 1 -16 6 -52 9
-80 4 -27 9 -68 11 -90 7 -61 15 -136 20 -175 2 -19 7 -62 10 -95 3 -33 8 -71
10 -85 2 -14 6 -56 10 -95 3 -38 8 -81 10 -95 2 -14 7 -52 10 -85 5 -57 12
-114 20 -180 2 -16 9 -77 15 -135 5 -58 12 -114 14 -125 2 -11 7 -58 11 -105
4 -47 8 -87 10 -90 2 -3 6 -43 10 -90 3 -46 8 -87 10 -90 1 -3 6 -36 9 -75 4
-38 8 -81 11 -95 2 -14 6 -56 10 -95 3 -38 7 -83 10 -100 6 -40 14 -107 20
-182 4 -35 8 -71 10 -82 2 -11 7 -51 10 -88 4 -37 8 -79 10 -93 2 -14 7 -52
10 -85 3 -33 8 -76 10 -95 3 -19 7 -55 9 -80 9 -79 16 -144 21 -185 3 -22 7
-60 9 -85 9 -77 15 -132 26 -225 5 -49 12 -111 15 -137 13 -122 15 -146 20
-183 2 -22 7 -62 10 -90 3 -27 8 -66 11 -85 2 -19 7 -60 10 -90 2 -30 6 -68 8
-85 2 -16 7 -57 10 -90 4 -33 9 -80 12 -105 2 -25 7 -65 9 -90 6 -50 13 -111
21 -180 2 -25 7 -63 9 -85 5 -49 13 -121 20 -177 9 -81 19 -171 30 -275 17
-163 27 -227 36 -239 8 -9 95 -53 119 -59 3 -1 28 -12 55 -24 100 -45 347
-124 455 -145 14 -3 56 -12 93 -20 37 -8 93 -18 125 -22 31 -3 59 -8 62 -9 3
-2 34 -6 70 -10 36 -3 76 -8 90 -10 63 -10 262 -18 435 -18 228 -1 381 8 590
34 141 17 159 20 245 36 47 8 96 17 110 20 38 7 194 42 211 47 8 3 40 12 72
21 l58 16 -6 582 c-3 320 -8 805 -10 1077 -3 272 -7 761 -10 1085 -3 325 -8
838 -10 1140 -3 303 -7 798 -10 1100 -9 1040 -15 1631 -20 2205 -13 1540 -16
1694 -26 1701 -6 3 -38 7 -72 8 -34 1 -75 4 -92 6 -16 2 -73 7 -125 10 -52 3
-117 7 -145 10 -71 6 -202 17 -255 20 -85 5 -245 16 -280 20 -19 2 -83 6 -142
10 -59 4 -119 8 -135 10 -15 2 -75 6 -133 10 -58 3 -121 8 -140 10 -19 2 -80
7 -135 10 -55 4 -122 8 -150 11 -27 2 -90 7 -138 10 -49 3 -105 7 -125 9 -20
2 -82 7 -137 10 -55 4 -116 8 -135 10 -19 2 -80 6 -135 10 -55 4 -116 8 -135
10 -19 2 -82 6 -140 10 -58 4 -121 9 -140 10 -19 2 -78 7 -130 10 -52 3 -111
8 -130 10 -19 2 -87 7 -150 10 -63 4 -125 8 -137 10 -12 2 -73 7 -135 10 -62
4 -116 9 -120 11 -4 3 -9 0 -12 -5z"/>
<path d="M14197 20504 c-1 -1 -105 -5 -232 -9 -126 -4 -257 -8 -290 -10 -33
-2 -148 -6 -255 -10 -374 -13 -458 -16 -845 -30 -66 -3 -187 -7 -270 -10 -82
-3 -206 -7 -275 -10 -69 -3 -188 -7 -265 -10 -77 -3 -210 -8 -295 -11 -85 -3
-198 -7 -250 -9 -172 -5 -473 -16 -565 -20 -49 -2 -111 -4 -136 -5 l-47 0 3
-362 c2 -200 6 -660 10 -1023 3 -363 7 -880 10 -1150 3 -269 7 -740 10 -1045
3 -305 7 -825 10 -1155 3 -330 8 -805 10 -1055 11 -1242 17 -1848 20 -2190 2
-206 4 -494 4 -640 l1 -265 73 -22 c80 -25 320 -86 382 -98 22 -5 45 -9 50
-11 6 -1 26 -5 45 -8 19 -4 42 -9 50 -11 8 -2 33 -6 55 -9 22 -4 63 -11 91
-16 28 -6 66 -12 85 -14 112 -12 167 -18 189 -22 167 -26 698 -25 915 1 17 2
53 6 80 9 76 9 125 17 351 60 77 15 352 93 474 134 152 51 380 139 392 151 3
3 9 58 12 121 4 63 8 140 11 170 2 30 6 109 10 175 3 66 8 147 10 180 3 33 7
105 10 160 3 55 8 132 10 170 3 39 7 111 10 160 5 110 15 278 21 365 2 36 6
112 9 170 4 58 8 137 10 175 9 149 15 253 20 335 6 122 15 264 20 345 2 39 7
117 10 175 3 58 8 132 10 165 2 33 7 110 10 170 3 61 8 137 10 170 2 33 7 116
10 185 3 69 8 145 10 170 3 25 7 92 10 150 3 58 8 143 10 190 2 47 7 121 10
165 3 44 7 123 10 175 3 52 7 120 10 150 2 30 6 114 10 185 3 72 8 150 10 175
2 25 6 99 10 165 3 66 8 147 10 180 3 33 7 101 10 150 2 50 7 128 9 175 3 47
8 134 11 193 3 60 8 130 10 155 2 26 6 99 9 162 4 63 8 147 11 185 2 39 7 117
10 175 4 58 8 134 10 170 2 36 6 115 10 175 3 61 7 137 10 170 3 33 7 107 10
165 3 58 7 128 9 155 2 28 7 109 10 180 4 72 9 155 11 185 2 30 7 105 10 165
3 61 8 137 10 170 2 33 7 112 10 175 4 63 8 142 10 175 2 33 6 116 10 185 3
69 8 141 10 160 3 28 10 159 18 312 1 41 -3 44 -54 44 -27 0 -51 -1 -52 -2z"/>
<path d="M16035 11653 c-66 -43 -267 -141 -389 -188 -106 -42 -321 -108 -384
-120 -15 -2 -52 -9 -82 -15 -30 -6 -71 -13 -90 -16 -19 -3 -46 -7 -60 -10
-133 -22 -528 -22 -635 1 -11 3 -31 7 -45 9 -123 20 -233 47 -360 88 l-95 30
-150 -60 c-169 -67 -385 -143 -490 -173 -82 -23 -338 -86 -378 -93 -15 -3 -53
-10 -85 -15 -31 -6 -75 -13 -97 -16 -22 -4 -51 -8 -65 -10 -14 -2 -52 -7 -85
-11 -33 -3 -68 -8 -79 -10 -51 -9 -272 -18 -446 -18 -236 0 -437 13 -625 40
-16 2 -43 6 -60 8 -16 2 -58 9 -92 15 -35 6 -75 13 -90 16 -15 2 -49 9 -77 14
-28 6 -62 12 -76 15 -73 12 -354 85 -490 127 l-65 20 -69 -21 c-38 -12 -77
-24 -87 -26 -38 -8 -56 -13 -134 -32 -69 -17 -99 -24 -175 -38 -46 -9 -79 -14
-115 -19 -22 -3 -65 -10 -95 -15 -30 -5 -80 -12 -110 -15 -30 -4 -68 -8 -85
-10 -16 -2 -73 -7 -125 -10 -52 -4 -111 -9 -130 -11 -45 -5 -445 -5 -530 0
-112 7 -234 17 -260 21 -14 3 -45 7 -70 10 -313 37 -671 138 -941 267 l-109
51 -54 -12 c-120 -27 -275 -39 -461 -36 -104 2 -212 6 -240 9 -208 27 -373 63
-514 111 -41 14 -77 23 -79 20 -8 -8 -6 -1497 1 -1527 7 -26 67 -57 247 -128
66 -27 359 -130 380 -135 8 -2 35 -10 60 -18 105 -36 536 -154 620 -171 14 -2
85 -18 159 -35 138 -32 163 -37 221 -47 19 -3 38 -8 41 -10 4 -2 24 -6 44 -10
21 -3 47 -8 59 -10 117 -24 561 -96 736 -119 25 -4 59 -8 75 -11 31 -4 250
-30 340 -40 28 -3 61 -7 75 -9 28 -4 145 -15 205 -20 144 -11 204 -16 230 -20
17 -2 75 -7 130 -10 55 -3 123 -8 150 -10 28 -2 102 -7 165 -10 63 -3 153 -8
200 -10 484 -26 1623 -26 2025 0 28 2 106 6 176 9 69 4 141 8 160 10 18 3 81
7 139 11 58 3 119 8 135 10 17 2 62 7 100 10 110 9 167 15 205 20 19 3 63 7
98 11 35 3 72 7 82 9 10 2 47 6 81 10 75 8 112 12 164 20 22 4 51 8 65 10 23
3 81 12 140 20 173 26 693 126 755 145 17 5 41 11 55 14 14 2 43 9 65 15 22 6
91 24 152 41 62 17 121 33 130 35 34 7 299 94 393 128 204 74 267 101 455 197
179 91 218 117 255 168 63 87 59 28 58 855 0 416 -3 757 -6 756 -4 0 -25 -12
-47 -26z"/>
<path d="M15907 9714 c-328 -174 -854 -358 -1312 -459 -33 -8 -89 -20 -125
-29 -36 -8 -76 -17 -90 -20 -14 -2 -74 -14 -135 -26 -60 -12 -121 -23 -135
-25 -14 -2 -25 -4 -25 -5 0 -2 -18 -5 -85 -14 -25 -4 -52 -9 -60 -11 -8 -2
-64 -11 -125 -20 -110 -16 -122 -18 -205 -30 -64 -9 -88 -13 -150 -20 -30 -4
-66 -8 -80 -10 -14 -2 -55 -6 -92 -10 -37 -3 -75 -7 -85 -9 -10 -2 -54 -7 -98
-10 -44 -4 -91 -9 -105 -11 -23 -3 -93 -9 -250 -21 -36 -2 -87 -7 -115 -9 -27
-2 -99 -7 -160 -10 -60 -3 -141 -8 -180 -10 -532 -33 -1605 -33 -2165 0 -36 2
-123 6 -195 10 -71 4 -148 8 -170 10 -22 2 -78 7 -125 10 -47 3 -107 7 -135
10 -27 2 -81 7 -120 11 -38 3 -88 7 -110 9 -22 2 -71 7 -110 10 -38 3 -81 7
-95 10 -14 2 -52 6 -85 9 -33 4 -80 9 -105 12 -25 3 -58 7 -75 9 -84 10 -204
26 -235 31 -19 3 -52 7 -74 9 -21 3 -64 9 -95 14 -31 6 -76 13 -101 16 -25 4
-97 15 -160 26 -63 11 -124 21 -135 23 -11 2 -47 8 -80 14 -33 6 -75 14 -92
17 -18 3 -61 12 -95 20 -35 7 -83 17 -107 20 -23 3 -55 11 -70 16 -14 6 -27
10 -29 9 -4 -2 -53 8 -172 37 -58 13 -112 26 -120 28 -162 33 -629 174 -850
255 -47 18 -96 35 -110 40 -14 4 -83 33 -154 64 -72 31 -134 56 -139 56 -6 0
-31 -24 -57 -52 l-48 -53 66 -17 c228 -56 417 -212 512 -421 l29 -65 183 6
c368 13 800 7 908 -12 14 -3 48 -8 75 -11 28 -4 59 -9 70 -11 11 -1 34 -5 50
-8 45 -8 190 -44 270 -67 218 -65 484 -196 696 -343 89 -62 97 -64 209 -42 27
5 192 35 225 40 51 9 94 17 135 26 25 5 57 12 73 15 15 3 39 7 55 10 15 3 47
10 72 15 25 5 72 14 105 20 33 5 71 12 85 15 36 7 69 13 115 20 23 3 50 7 60
9 11 2 45 6 75 10 30 4 69 8 85 11 203 25 696 25 795 0 8 -2 42 -6 75 -10 67
-7 95 -11 175 -26 30 -5 73 -12 95 -15 22 -3 57 -10 78 -15 21 -6 50 -12 65
-14 78 -12 360 -83 562 -142 85 -25 166 -49 180 -52 18 -6 72 14 225 82 110
49 209 93 220 98 40 17 180 71 195 74 8 2 35 11 60 20 25 9 52 18 60 20 8 2
50 13 92 25 43 11 86 23 98 25 11 3 28 7 38 9 9 2 37 7 62 12 25 4 47 8 50 9
3 1 32 5 65 10 33 5 62 10 65 10 3 1 37 5 75 9 39 4 84 9 100 11 160 23 801
23 985 0 19 -3 72 -7 117 -10 44 -3 95 -7 112 -10 17 -2 66 -7 109 -10 42 -4
80 -9 85 -12 4 -2 83 56 175 130 385 310 592 410 927 452 17 2 72 4 123 4 l93
1 -56 78 c-30 42 -67 95 -83 118 l-28 41 -117 -63z"/>
<path d="M5769 9423 c-1 -10 -3 -27 -4 -38 -2 -11 -6 -51 -10 -90 -3 -38 -8
-81 -10 -95 -3 -13 -7 -58 -11 -99 -3 -41 -8 -84 -10 -95 -2 -11 -6 -50 -10
-86 -3 -36 -7 -76 -9 -90 -2 -14 -6 -54 -10 -90 -4 -36 -8 -76 -10 -90 -2 -14
-7 -56 -10 -95 -4 -38 -8 -81 -10 -95 -3 -22 -9 -73 -21 -189 -2 -20 -6 -56
-8 -81 -3 -25 -8 -70 -11 -100 -3 -30 -8 -71 -10 -90 -8 -63 -17 -144 -20
-190 -4 -41 -9 -87 -20 -180 -3 -19 -7 -62 -10 -95 -2 -33 -7 -80 -10 -105
-11 -82 -14 -104 -20 -175 -4 -38 -8 -77 -10 -85 -2 -8 -7 -49 -10 -90 -4 -41
-8 -86 -10 -100 -2 -14 -6 -52 -10 -85 -3 -33 -8 -80 -11 -105 -5 -50 -9 -85
-18 -181 -4 -35 -9 -75 -11 -89 -2 -14 -7 -54 -10 -90 -3 -36 -8 -81 -10 -100
-2 -19 -7 -60 -10 -90 -3 -30 -8 -71 -10 -90 -2 -19 -7 -64 -11 -100 -3 -36
-7 -72 -9 -80 -2 -8 -6 -51 -9 -95 -4 -44 -9 -87 -11 -95 -2 -8 -6 -46 -10
-85 -3 -38 -8 -83 -10 -100 -2 -16 -7 -57 -10 -90 -3 -33 -8 -78 -10 -100 -5
-39 -12 -106 -19 -176 -2 -20 -7 -65 -11 -100 -3 -35 -8 -71 -10 -79 -2 -8 -6
-51 -10 -95 -3 -44 -8 -91 -10 -105 -2 -14 -7 -52 -10 -85 -3 -33 -7 -76 -10
-95 -3 -19 -7 -60 -10 -90 -3 -30 -7 -68 -9 -85 -2 -16 -7 -59 -10 -95 -4 -36
-8 -81 -10 -100 -7 -53 -15 -129 -21 -190 -4 -30 -8 -68 -10 -85 -2 -16 -6
-57 -9 -90 -4 -33 -9 -80 -12 -105 -5 -48 -9 -81 -18 -181 -4 -35 -9 -75 -11
-89 -3 -14 -7 -57 -10 -95 -3 -39 -7 -79 -9 -90 -2 -11 -7 -54 -11 -95 -3 -41
-8 -86 -10 -100 -2 -14 -6 -54 -10 -90 -3 -36 -8 -76 -10 -90 -2 -14 -7 -54
-10 -90 -3 -36 -8 -81 -11 -100 -2 -19 -6 -58 -9 -86 -2 -28 -7 -73 -10 -100
-3 -27 -8 -65 -10 -84 -2 -19 -7 -60 -10 -90 -4 -31 -8 -71 -9 -90 -3 -31 -9
-85 -21 -185 -2 -16 -6 -61 -10 -100 -4 -38 -8 -81 -11 -95 -2 -14 -6 -56 -9
-95 -3 -38 -8 -80 -10 -92 -4 -15 58 -125 205 -369 116 -191 210 -341 211
-333 0 7 2 21 4 29 1 8 5 47 9 85 4 39 9 81 11 95 4 24 8 55 20 168 3 26 8 63
10 82 5 35 8 63 20 175 4 32 8 66 10 75 1 8 6 47 9 85 4 39 14 120 21 180 8
61 17 135 20 165 3 30 7 66 10 80 2 14 7 52 10 85 3 33 8 71 10 85 2 14 6 56
10 95 4 38 8 72 10 75 1 3 6 41 10 85 4 44 8 82 10 85 1 3 6 41 10 84 4 43 8
88 11 99 2 11 6 47 9 81 3 33 7 72 9 86 3 14 7 52 11 85 3 33 8 74 10 90 4 28
8 58 21 175 2 25 6 59 9 75 2 17 7 57 10 90 4 33 8 71 11 85 2 14 7 54 10 88
3 35 7 73 10 85 2 12 6 49 9 82 3 33 8 74 10 90 2 17 9 71 15 120 6 50 12 106
15 125 7 64 14 124 20 185 3 33 8 71 10 85 3 14 7 52 10 85 4 33 8 71 10 85 4
25 21 163 31 255 3 28 7 61 9 75 4 26 11 89 20 180 4 30 8 66 10 80 2 14 7 50
10 80 8 78 15 139 20 180 5 35 9 74 19 160 9 80 17 144 26 220 5 41 12 100 15
130 4 30 8 66 10 80 2 14 7 54 10 90 4 36 8 72 10 80 2 8 6 49 10 90 4 41 9
84 11 94 2 11 6 47 9 80 3 34 8 72 10 86 2 14 9 70 15 125 6 55 13 111 15 125
2 14 9 71 15 127 6 56 12 110 14 120 2 10 7 47 10 83 6 61 10 96 21 180 2 19
7 60 10 90 4 30 8 66 10 80 4 30 17 144 20 180 1 14 5 45 8 70 6 41 12 89 22
175 2 17 6 57 10 90 3 33 12 114 21 180 8 66 17 140 20 165 3 25 7 61 9 80 3
19 7 60 10 90 3 30 8 66 10 80 29 193 26 252 -15 333 -76 150 -209 248 -398
293 -75 18 -82 17 -83 -3z"/>
<path d="M16047 9314 c-1 -1 -24 -5 -52 -8 -127 -17 -321 -82 -444 -149 -59
-32 -213 -127 -221 -137 -3 -3 -21 -17 -40 -30 -75 -52 -260 -203 -256 -209 2
-3 7 -40 10 -81 4 -41 9 -86 11 -100 4 -23 7 -51 20 -190 2 -25 6 -61 9 -80 3
-19 8 -60 10 -90 11 -110 17 -166 22 -202 3 -21 7 -64 9 -95 2 -32 6 -72 9
-88 2 -17 7 -60 11 -97 3 -37 7 -75 9 -85 2 -10 7 -54 10 -98 4 -44 11 -114
16 -155 5 -41 12 -102 15 -135 3 -33 8 -73 10 -90 2 -16 7 -61 10 -100 4 -38
8 -83 11 -100 4 -32 10 -89 19 -192 3 -34 8 -72 10 -85 3 -12 8 -56 11 -97 3
-42 7 -83 9 -92 2 -9 6 -52 10 -95 3 -43 8 -90 10 -104 3 -14 7 -52 10 -85 3
-33 8 -76 10 -95 2 -19 9 -82 15 -140 6 -58 13 -121 15 -140 2 -19 7 -62 10
-95 3 -33 7 -71 10 -85 2 -14 7 -56 10 -95 3 -38 8 -86 10 -105 3 -19 7 -60 9
-90 3 -30 7 -71 10 -90 3 -19 8 -64 11 -100 3 -36 7 -78 9 -95 9 -70 21 -179
30 -285 4 -41 9 -86 11 -100 3 -14 7 -54 10 -90 3 -36 8 -76 10 -90 2 -14 7
-58 10 -99 4 -41 8 -82 10 -91 2 -9 6 -50 10 -91 3 -41 8 -85 10 -99 2 -14 7
-59 10 -100 3 -41 8 -82 10 -90 2 -8 7 -46 10 -85 3 -38 8 -88 11 -110 10 -96
13 -124 19 -185 4 -36 8 -76 10 -90 2 -14 7 -56 10 -95 4 -38 8 -77 10 -85 2
-8 7 -53 10 -99 4 -46 8 -91 10 -101 2 -9 6 -53 10 -96 3 -43 8 -86 10 -94 2
-8 7 -49 10 -90 4 -41 8 -86 10 -100 2 -14 7 -54 10 -90 3 -36 7 -76 10 -90 2
-14 7 -56 10 -95 3 -38 10 -104 15 -145 5 -41 11 -101 14 -132 4 -32 9 -84 12
-115 3 -32 7 -74 10 -94 3 -20 7 -59 10 -85 10 -103 35 -341 39 -381 7 -65 14
-122 20 -188 7 -65 13 -121 20 -175 2 -19 7 -66 10 -105 4 -38 8 -83 10 -100
2 -16 7 -55 10 -85 10 -111 17 -165 22 -172 6 -11 173 0 273 17 382 66 714
242 1016 540 133 131 184 196 179 226 -5 34 -12 82 -25 179 -6 47 -13 96 -15
110 -2 14 -9 61 -15 106 -6 44 -12 89 -14 100 -2 10 -7 44 -10 74 -4 30 -8 66
-11 80 -2 14 -9 63 -15 110 -12 92 -19 141 -25 180 -3 14 -7 48 -10 75 -3 28
-10 77 -15 110 -9 59 -15 103 -25 188 -3 23 -8 53 -10 67 -2 14 -7 43 -10 65
-2 22 -10 74 -15 115 -6 41 -13 95 -16 120 -3 25 -7 52 -9 60 -2 8 -7 40 -10
70 -6 55 -8 69 -20 145 -7 52 -13 97 -21 165 -3 30 -7 57 -9 60 -2 3 -6 37
-10 75 -4 39 -9 72 -10 75 -2 3 -7 33 -10 65 -4 33 -8 67 -10 75 -1 8 -6 40
-10 70 -3 30 -8 66 -10 80 -7 44 -24 164 -30 215 -3 28 -10 75 -15 105 -5 30
-12 78 -15 105 -6 54 -16 129 -21 159 -2 11 -8 56 -14 100 -6 45 -13 92 -15
106 -2 14 -6 47 -10 75 -3 27 -7 57 -9 65 -3 8 -7 42 -11 75 -3 33 -8 69 -10
80 -2 11 -7 43 -10 70 -5 47 -8 68 -20 140 -2 17 -7 55 -10 85 -3 30 -10 78
-15 105 -5 28 -12 73 -15 100 -4 28 -8 66 -11 85 -2 19 -7 51 -10 70 -3 19 -7
49 -9 65 -4 36 -17 136 -49 365 -9 58 -25 175 -36 260 -22 161 -29 208 -35
250 -3 14 -7 48 -10 75 -3 28 -8 61 -10 75 -2 14 -6 45 -10 70 -5 43 -13 97
-20 150 -5 35 -23 166 -30 220 -4 25 -8 56 -11 70 -2 14 -8 61 -14 105 -6 44
-12 91 -15 105 -2 14 -7 46 -9 72 -6 51 -14 107 -21 153 -3 17 -7 46 -9 65 -3
19 -10 71 -16 115 -6 44 -14 96 -16 115 -5 39 -14 102 -19 140 -2 14 -16 113
-30 220 -14 107 -28 206 -30 219 -2 13 -7 45 -11 70 -3 25 -8 57 -10 71 -2 14
-7 48 -9 76 -3 28 -8 62 -10 75 -3 13 -13 82 -22 152 l-17 128 -118 -2 c-65
-1 -119 -4 -121 -5z"/>
<path d="M6896 8943 c-1 -1 -80 -4 -176 -7 -96 -2 -185 -5 -196 -5 -19 -1 -22
-9 -29 -73 -4 -40 -9 -82 -11 -93 -2 -11 -6 -49 -10 -83 -3 -35 -7 -71 -9 -80
-1 -10 -6 -48 -10 -87 -4 -38 -8 -81 -11 -95 -2 -13 -8 -68 -14 -121 -6 -54
-12 -106 -14 -116 -2 -10 -7 -52 -11 -93 -3 -41 -8 -82 -10 -90 -2 -8 -7 -42
-10 -75 -3 -33 -7 -71 -10 -85 -2 -14 -7 -54 -10 -90 -3 -36 -8 -78 -10 -95
-3 -16 -7 -51 -10 -77 -8 -79 -15 -139 -25 -218 -6 -41 -12 -102 -15 -134 -3
-33 -7 -62 -9 -65 -2 -3 -7 -46 -11 -95 -3 -50 -8 -92 -9 -95 -2 -3 -7 -37
-11 -74 -3 -37 -8 -76 -10 -87 -2 -10 -6 -47 -9 -82 -3 -34 -8 -74 -11 -88 -4
-24 -11 -86 -20 -180 -2 -25 -7 -65 -10 -90 -13 -96 -23 -175 -30 -251 -3 -31
-8 -67 -10 -80 -3 -13 -7 -49 -10 -80 -3 -31 -8 -71 -10 -90 -3 -19 -7 -56
-10 -84 -6 -53 -13 -108 -20 -165 -2 -19 -7 -57 -10 -85 -10 -94 -15 -140 -20
-175 -2 -19 -7 -60 -11 -90 -3 -30 -7 -68 -9 -85 -2 -16 -7 -55 -10 -85 -3
-30 -8 -66 -10 -80 -2 -14 -6 -54 -10 -90 -4 -36 -8 -76 -10 -90 -2 -14 -6
-50 -10 -80 -4 -30 -8 -66 -10 -80 -2 -14 -7 -54 -11 -90 -4 -36 -8 -74 -9
-85 -2 -11 -6 -49 -10 -85 -3 -36 -8 -76 -10 -90 -2 -14 -6 -50 -10 -80 -3
-30 -10 -89 -15 -130 -5 -41 -11 -95 -14 -120 -10 -86 -17 -145 -26 -220 -5
-41 -12 -100 -15 -130 -3 -30 -8 -68 -10 -85 -2 -16 -7 -52 -10 -80 -3 -27
-10 -84 -15 -125 -5 -41 -12 -104 -16 -140 -3 -36 -7 -72 -9 -80 -1 -8 -6 -44
-10 -80 -3 -36 -8 -76 -10 -90 -1 -14 -8 -70 -14 -125 -7 -55 -14 -116 -16
-135 -3 -19 -7 -57 -10 -85 -3 -27 -8 -66 -10 -85 -5 -33 -8 -62 -20 -175 -3
-27 -10 -84 -15 -125 -5 -41 -12 -100 -15 -130 -3 -30 -8 -66 -10 -80 -2 -14
-6 -50 -9 -80 -3 -30 -7 -71 -10 -90 -5 -33 -10 -75 -22 -180 -3 -25 -7 -59
-9 -77 -3 -17 -11 -91 -20 -165 -8 -73 -17 -151 -20 -173 -2 -22 -7 -67 -11
-100 -3 -33 -8 -68 -9 -77 -2 -9 -6 -48 -10 -85 -3 -37 -8 -79 -10 -93 -2 -14
-7 -47 -10 -75 l-5 -50 65 -37 c329 -186 768 -334 1230 -413 17 -2 39 -7 51
-9 12 -2 45 -7 74 -11 29 -4 60 -8 69 -10 15 -2 82 -11 161 -20 183 -22 458
-37 665 -38 120 0 367 10 407 16 25 4 32 14 11 14 -76 0 -74 -2 -69 61 3 31 8
115 11 187 4 72 8 148 10 171 2 23 6 95 10 160 3 65 8 144 10 174 2 30 7 111
10 180 4 69 8 148 10 175 2 28 6 100 9 160 4 61 9 142 11 180 3 39 7 120 10
180 3 61 7 142 10 180 2 39 7 111 10 160 3 50 7 126 10 170 3 44 7 125 10 180
3 55 7 134 10 175 2 41 7 118 10 170 3 52 8 136 11 185 2 50 7 128 9 175 3 47
7 123 10 170 3 47 8 123 10 170 2 47 7 128 10 180 11 185 20 330 30 515 3 50
7 122 10 160 2 39 7 117 10 175 6 109 10 180 19 340 3 52 8 140 11 195 3 55 8
132 10 170 3 39 7 115 10 170 2 55 7 136 10 180 3 44 7 121 10 170 11 197 16
273 20 350 11 169 14 224 20 345 3 69 8 145 10 170 2 25 6 104 10 175 3 72 7
150 10 175 2 25 7 99 10 165 3 66 8 152 10 190 3 39 7 108 10 155 3 47 7 119
9 160 3 41 8 129 11 195 3 66 8 147 10 180 3 33 7 106 10 163 3 57 6 107 6
110 6 39 -7 53 -108 121 -134 89 -344 196 -488 249 -103 37 -312 94 -397 106
-124 19 -164 24 -253 32 -69 6 -533 12 -539 7z"/>
<path d="M13649 8786 c-2 -2 -53 -7 -112 -10 -59 -4 -113 -9 -120 -11 -7 -2
-41 -6 -75 -10 -51 -5 -166 -24 -237 -39 -5 -1 -37 -8 -70 -15 -166 -35 -438
-136 -715 -264 -42 -19 -86 -37 -98 -41 -22 -7 -23 -9 -17 -144 3 -75 7 -195
10 -267 3 -71 7 -186 10 -255 3 -69 7 -177 10 -240 3 -63 7 -178 10 -255 3
-77 7 -196 11 -265 3 -69 7 -178 9 -242 2 -65 7 -179 10 -255 7 -171 14 -343
19 -493 3 -63 7 -180 11 -260 13 -319 15 -361 20 -510 3 -85 8 -204 10 -265 3
-60 7 -175 10 -255 3 -80 8 -192 10 -250 2 -58 7 -168 10 -245 3 -77 8 -192
10 -255 3 -63 7 -171 10 -240 2 -69 7 -190 10 -270 4 -80 8 -194 10 -255 2
-60 7 -180 10 -265 3 -85 8 -200 10 -255 3 -55 7 -154 10 -220 2 -66 7 -181
10 -255 3 -74 7 -196 10 -270 3 -74 8 -184 10 -245 5 -122 15 -361 20 -500 2
-49 7 -169 10 -265 4 -96 9 -211 10 -255 2 -44 6 -154 10 -245 3 -91 7 -187 8
-215 l2 -50 -50 -5 -50 -6 45 -8 c54 -9 79 -13 145 -21 28 -3 66 -7 85 -10 19
-2 69 -7 110 -11 41 -3 89 -8 105 -10 154 -19 798 -19 903 1 9 1 54 6 99 9 45
4 91 9 103 11 12 2 48 7 79 11 31 3 65 8 76 10 10 2 37 6 60 9 22 3 72 12 110
20 39 8 86 17 105 20 71 12 283 67 407 105 254 77 428 147 658 265 142 72 160
84 159 106 -2 32 -15 168 -30 294 -3 28 -7 66 -9 85 -7 57 -14 131 -20 195 -3
33 -7 74 -10 90 -2 17 -6 62 -10 100 -4 39 -8 81 -10 95 -4 26 -13 112 -20
190 -3 25 -7 65 -10 90 -2 25 -7 68 -10 95 -3 28 -7 68 -10 90 -8 71 -17 159
-20 195 -2 19 -7 60 -10 90 -17 156 -23 209 -30 292 -3 37 -8 77 -10 89 -3 12
-7 54 -10 93 -3 39 -8 82 -10 96 -6 43 -15 123 -20 180 -3 30 -7 76 -11 101
-3 26 -7 69 -9 95 -2 27 -6 63 -9 79 -2 17 -8 64 -11 105 -3 41 -8 86 -10 100
-2 14 -6 55 -10 91 -3 36 -7 76 -10 90 -2 13 -6 56 -10 94 -3 39 -8 84 -10
100 -2 17 -7 57 -10 90 -9 94 -15 146 -20 195 -3 25 -7 70 -10 100 -3 30 -8
71 -10 90 -5 46 -13 121 -20 190 -3 30 -7 75 -10 100 -3 25 -8 63 -10 85 -5
52 -15 141 -20 185 -7 62 -15 134 -20 190 -6 57 -12 111 -20 183 -3 23 -7 67
-10 97 -6 65 -15 145 -30 295 -4 33 -8 71 -10 85 -3 14 -7 57 -10 95 -3 39 -7
81 -9 95 -5 28 -13 103 -21 195 -3 33 -8 76 -10 95 -3 19 -7 62 -10 95 -3 33
-8 76 -10 95 -6 43 -18 155 -29 275 -3 28 -8 68 -10 90 -3 22 -10 87 -16 145
-6 58 -12 119 -14 135 -2 17 -7 64 -10 105 -4 41 -9 86 -11 100 -3 14 -7 54
-10 90 -4 36 -8 76 -10 90 -2 14 -7 59 -10 100 -4 41 -9 84 -11 94 -2 11 -6
49 -9 85 -3 36 -7 82 -10 101 -2 19 -9 82 -15 140 -6 58 -13 121 -15 140 -2
19 -6 58 -9 85 -13 132 -19 181 -21 195 -2 8 -6 51 -10 95 -3 44 -8 91 -10
105 -2 14 -7 54 -10 90 -4 36 -10 68 -13 72 -7 6 -91 17 -177 23 -83 6 -211
17 -245 21 -45 6 -735 15 -741 10z"/>
<path d="M10337 8654 c-1 -1 -51 -4 -112 -8 -60 -4 -126 -9 -145 -11 -19 -3
-60 -7 -90 -10 -30 -4 -62 -8 -70 -10 -8 -2 -35 -7 -60 -10 -71 -10 -100 -14
-180 -30 -41 -8 -86 -17 -100 -19 -14 -3 -108 -20 -210 -40 -281 -53 -361 -67
-410 -73 -25 -3 -47 -7 -49 -9 -7 -7 -10 -29 -16 -149 -7 -123 -12 -219 -20
-345 -2 -47 -7 -132 -10 -190 -3 -58 -8 -134 -10 -170 -3 -36 -7 -112 -10
-170 -3 -58 -7 -139 -10 -180 -2 -41 -7 -118 -10 -170 -3 -52 -7 -126 -10
-165 -5 -88 -16 -270 -20 -355 -5 -98 -15 -278 -20 -345 -2 -33 -7 -107 -10
-165 -10 -192 -14 -264 -20 -355 -3 -49 -8 -135 -10 -190 -3 -55 -8 -129 -10
-165 -2 -36 -7 -110 -10 -165 -3 -55 -7 -134 -10 -175 -2 -41 -7 -118 -10
-170 -5 -105 -13 -235 -20 -350 -3 -41 -7 -120 -10 -175 -3 -55 -7 -136 -10
-180 -3 -44 -7 -123 -10 -175 -3 -52 -7 -124 -9 -160 -3 -36 -7 -117 -11 -180
-3 -63 -8 -142 -10 -175 -3 -33 -7 -112 -10 -175 -3 -63 -8 -140 -10 -170 -2
-30 -6 -111 -10 -180 -3 -69 -8 -147 -10 -175 -2 -27 -7 -104 -10 -170 -4 -66
-8 -142 -10 -170 -2 -27 -6 -106 -10 -175 -4 -69 -8 -147 -10 -175 -4 -54 -14
-240 -20 -345 -2 -36 -6 -110 -10 -165 -11 -181 -16 -281 -30 -540 -2 -38 -6
-113 -10 -165 -3 -52 -8 -126 -10 -165 -2 -38 -7 -122 -11 -185 -3 -63 -7
-133 -8 -155 l-2 -40 -54 3 c-66 3 -57 -5 53 -48 180 -70 488 -133 802 -164
28 -3 73 -8 100 -10 46 -5 92 -9 245 -21 203 -15 418 -20 960 -20 338 0 680 4
760 8 80 5 179 10 220 12 137 7 265 16 300 20 19 2 69 6 110 10 41 3 97 8 124
10 72 6 220 26 304 41 47 9 39 19 -13 17 -40 -2 -45 0 -43 20 1 20 -3 112 -17
467 -3 63 -7 165 -10 225 -2 61 -7 175 -10 255 -3 80 -7 199 -10 265 -5 123
-12 292 -20 520 -3 72 -7 180 -10 240 -7 165 -21 517 -30 770 -2 77 -7 194
-10 260 -3 66 -8 176 -10 244 -8 205 -15 390 -20 496 -2 55 -7 174 -10 265 -3
91 -8 206 -10 255 -2 50 -7 160 -10 245 -3 85 -7 200 -10 255 -2 55 -7 165
-10 245 -3 80 -8 199 -11 265 -2 66 -6 179 -9 250 -4 121 -8 227 -20 500 -2
61 -7 180 -10 265 -4 85 -8 196 -10 245 -2 50 -6 162 -10 250 -3 88 -8 205
-10 260 -2 55 -7 170 -10 255 -3 85 -8 205 -10 265 -3 61 -7 164 -10 230 -13
355 -17 430 -20 434 -3 2 -70 23 -150 47 -325 96 -744 187 -965 210 -25 2 -58
6 -75 8 -69 10 -440 26 -448 20z"/>
</g>
</svg>
