<?xml version="1.0" encoding="utf-8"?>
<!-- Generator: Adobe Illustrator 15.0.0, SVG Export Plug-In . SVG Version: 6.00 Build 0)  -->
<!DOCTYPE svg PUBLIC "-//W3C//DTD SVG 1.1//EN" "http://www.w3.org/Graphics/SVG/1.1/DTD/svg11.dtd">
<svg version="1.1" id="Layer_1" xmlns="http://www.w3.org/2000/svg" xmlns:xlink="http://www.w3.org/1999/xlink" x="0px" y="0px"
	 width="595.275px" height="708.662px" viewBox="297.637 66.615 595.275 708.662"
	 enable-background="new 297.637 66.615 595.275 708.662" xml:space="preserve">
<path d="M360.03,182.127L360.03,182.127L360.03,182.127z"/>
<g>
	<g>
		<path d="M464.374,498.297c2.072-0.041,4.165-0.111,6.298-0.193c14.951-0.545,31.783-1.141,49.889,12.354
			c5.023-0.758,9.481-1.627,13.667-2.455c17.458-3.459,31.267-6.168,64.364,4.174c1.324-0.586,2.618-1.162,3.901-1.738
			c13.173-5.955,25.616-11.586,63.424-7.4c1.011-0.799,2.002-1.607,2.982-2.406c7.521-6.096,15.346-12.291,28.285-11.604
			l-3.983-5.672c-9.674,5.812-41.255,20.369-115.07,20.369c-77.415,0-115.637-15.264-125.816-20.096l-2.487,2.639
			C454.599,487.016,461.463,490.117,464.374,498.297z"/>
		<path d="M517.042,514.674c-16.468-12.152-31.55-11.688-46.178-11.162c-2.062,0.072-4.063,0.111-6.075,0.152l-22.897,195.387
			c22.361,13.697,56.085,13.729,66.518,12.424l-2.699-0.162L517.042,514.674z"/>
		<path d="M459.623,501.318c-2.285-8.248-10.028-9.604-12.434-9.836l-19.885,184.025c0,0,3.447,5.641,9.978,16.498L459.623,501.318z
			"/>
		<path d="M596.115,517.109c-31.075-9.562-43.682-7.188-60.856-3.801c-3.953,0.768-8.209,1.576-12.869,2.314l-11.281,196.023
			l-2.699-0.162c18.854,10.08,91.203,6.127,98.219,3.508l-2.699,0.111L596.115,517.109z"/>
		<path d="M699.51,494.414c-11.403-0.838-19.764,4.377-27.203,10.402c-0.9,0.729-1.84,1.467-2.75,2.203l20.582,194.285
			c22.159,0.223,35.32-18.326,35.32-18.326L699.51,494.414z"/>
		<path d="M664.24,508.305c-35.432-3.781-47.188,1.486-59.542,7.045c-1.052,0.477-2.133,0.951-3.205,1.426l7.825,198.096
			l-2.699,0.111c41.932,6.531,69.004-6.156,78.273-11.736L664.24,508.305z"/>
	</g>
	<path d="M642.182,443.617c-9.624,4.002-24.333,9.836-44.864,9.836c-10.968,0-23.604-1.668-38.01-6.166
		c-16.336,5.348-49.463,8.834-72.734-3.68c-10.634,2.566-24.271,0.92-32.521-2.428v36.16l0.304,1.244
		c9.108,4.285,47.279,19.723,123.765,19.723c81.771,0,110.754-18.379,114.596-21.098l2.021-2.932v-36.654
		C688.855,441.332,667.424,452.988,642.182,443.617z"/>
	<path d="M692.211,432.82l24.898-216.646l-59.684,9.209l-12.454,213.36C667.879,446.74,687.702,435.682,692.211,432.82z"/>
	<path d="M465.406,222.513l24.05,216.384c22.098,11.715,53.345,7.754,67.104,3.518l-1.932-213.361L465.406,222.513z"/>
	<polygon points="654.757,220.339 708.891,211.979 589.473,171.402 653.412,220.39 	"/>
	<path d="M561.967,442.344c38.414,11.686,63.475,2.324,77.576-3.488l12.424-212.774l-0.313-0.243l-91.617,3.326L561.967,442.344z"/>
	<polygon points="438.971,205.883 462.313,216.75 535.947,178.286 	"/>
	<path d="M863.124,237.949c0,0-57.885-53.921-63.141-58.309c-5.257-4.388-29.377,1.749-29.377,1.749s-45.056,0-69.064,1.79
		l29.892,16.973l-8.623,13.728L697.963,429.99l1.617-2.193l26.314-186.785l41.053-2.194c-0.111,0.152,23.988-2.183,24.523-1.739
		c4.287,3.528,26.496,15.346,26.496,15.346s0,3.498-1.304,10.948c-20.178,20.177-15.801,39.021-15.801,56.125
		c-13.586,11.413-10.948,34.199-11.393,48.23c-19.278,16.214-12.272,60.068-12.272,60.068s-5.267,4.832-12.05,7.016
		c-6.804,2.184-19.521-7.461-19.521-7.461l-5.267,1.324l-5.277,8.33l4.843,19.732l7.45,8.33c0,0,41.214-9.209,49.544-11.838
		c8.319-2.629,9.644-11.393,9.644-11.393s57.874-185.48,59.623-192.486C867.946,242.336,863.124,237.949,863.124,237.949z"/>
	<path d="M483.976,438.562l-24.12-217l-25.99-12.09l-2.112,112.392l13.091,106.812l9.734,6.844
		C461.029,438.754,474.089,440.523,483.976,438.562z"/>
	<path d="M428.488,208.542l-46.916,8.704l-12.565,10.462c9.473,4.054,12.252,12,12.252,12l45.299,70.743L428.488,208.542z"/>
	<path d="M589.2,165.367h-28.618l-10.342-46.562c0,0,7.39-10.189,23.827-10.189c16.447,0,26.96,11.514,26.96,11.514L589.2,165.367z"
		/>
	<g>
		<path d="M556.831,163.699c-0.232,0.04-0.485,0.081-0.627,0.141c-62.695,3.518-178.009,39.466-178.009,39.466l-3.508,6.591
			c0,0,0,0-6.793,5.267c-6.804,5.257-10.312,9.624-5.924,10.523c0.293,0.041,0.515,0.142,0.798,0.192l16.428-13.677l51.454-9.553
			l126.777-36.089L556.831,163.699z"/>
		<polygon points="572.823,171.159 560.734,223.746 644.942,220.693 580.294,171.159 		"/>
		<path d="M690.907,183.351c-29.286-9.594-87.079-17.034-98.067-18.388l-0.425,1.729l126.625,43.024l4.812-7.663L690.907,183.351z"
			/>
		<polygon points="561.259,171.159 472.068,217.741 555.194,223.695 567.274,171.159 		"/>
	</g>
</g>
</svg>
