<?xml version="1.0" encoding="utf-8"?>
<!-- Generator: Adobe Illustrator 16.0.0, SVG Export Plug-In . SVG Version: 6.00 Build 0)  -->
<!DOCTYPE svg PUBLIC "-//W3C//DTD SVG 1.1//EN" "http://www.w3.org/Graphics/SVG/1.1/DTD/svg11.dtd">
<svg version="1.1" xmlns="http://www.w3.org/2000/svg" xmlns:xlink="http://www.w3.org/1999/xlink" x="0px" y="0px"
	 width="336.468px" height="337.139px" viewBox="0 0 336.468 337.139" enable-background="new 0 0 336.468 337.139"
	 xml:space="preserve">
<g id="Layer_1">
	<rect y="0" fill="#EBECED" width="336.468" height="337.139"/>
</g>
<g id="Layer_6">
</g>
<g id="Layer_5">
</g>
<g id="Layer_2">
	<g>
		<g>
			<path d="M160.083,123.977c-0.073,5.637-1.152,11.166-2.085,16.708c-0.158,0.946,1.287,1.351,1.447,0.398
				c0.954-5.672,2.063-11.336,2.138-17.106C161.596,123.009,160.096,123.01,160.083,123.977L160.083,123.977z"/>
		</g>
	</g>
	<g>
		<g>
			<path d="M161.514,143.406c-0.495,0.263-0.987,0.692-0.951,1.309c0.035,0.619,0.539,1.025,1.045,1.298
				c1.002,0.541,2.315,0.886,3.455,0.906c0.968,0.018,0.966-1.482,0-1.5c-0.702-0.013-1.444-0.231-2.124-0.461
				c-0.268-0.09-0.635-0.232-0.826-0.38c-0.178-0.138-0.063-0.099-0.054,0.078c0.008,0.14-0.147,0.299-0.016,0.171
				c0.04-0.039,0.181-0.101,0.229-0.126C163.126,144.248,162.368,142.953,161.514,143.406L161.514,143.406z"/>
		</g>
	</g>
	<g>
		<g>
			<path d="M123.199,142.32c4.889,9.594,11.056,18.427,18.082,26.572c0.633,0.734,1.689-0.332,1.061-1.061
				c-6.945-8.051-13.017-16.789-17.848-26.268C124.055,140.701,122.761,141.46,123.199,142.32L123.199,142.32z"/>
		</g>
	</g>
	<g>
		<g>
			<path d="M210.917,141.563c-4.276,9.421-9.69,18.124-15.854,26.42c-0.578,0.777,0.726,1.524,1.295,0.757
				c6.164-8.296,11.577-16.999,15.854-26.42C212.608,141.446,211.316,140.683,210.917,141.563L210.917,141.563z"/>
		</g>
	</g>
	<g>
		<g>
			<path d="M169.626,82.959c0.63,1.86-6.104,6.771-7.217,7.737c-5.221,4.535-10.665,8.814-16.041,13.161
				c-10.292,8.323-21.883,16.655-29.846,27.376c-4.149,5.588-6.217,13.305-8.152,19.866c-2.872,9.733-4.47,19.832-5.294,29.932
				c-1.603,19.627,0.307,40.425,8.499,58.514c0.398,0.88,1.69,0.116,1.295-0.758c-8.762-19.344-9.987-41.513-7.871-62.385
				c1.047-10.313,3.249-20.523,6.528-30.354c2.33-6.989,5.017-13.082,10.029-18.468c9.728-10.453,21.492-19.104,32.555-28.064
				c4.462-3.615,8.964-7.218,13.139-11.167c1.187-1.122,4.512-3.754,3.823-5.79C170.765,81.65,169.315,82.041,169.626,82.959
				L169.626,82.959z"/>
		</g>
	</g>
	<g>
		<g>
			<path d="M170.652,97.555c-0.428,26.282,32.476,23.263,49.203,32.144c11.888,6.311,10.768,22.261,10.583,33.813
				c-0.228,14.27-1.748,28.572-3.749,42.695c-0.134,0.945,1.312,1.354,1.447,0.398c1.905-13.451,3.287-27.007,3.739-40.588
				c0.343-10.3,1.546-24.868-5.678-33.326c-14.063-16.467-54.528-5.505-54.046-35.136C172.168,96.587,170.668,96.589,170.652,97.555
				L170.652,97.555z"/>
		</g>
	</g>
	<g>
		<g>
			<path d="M109.697,108.801c-9.309-17.318-9.307-37.188,3.168-52.93c11.758-14.837,31.266-21.377,49.684-21.032
				c21.982,0.412,42.599,10.652,55.563,28.448c12.492,17.149,22.244,42.135,8.654,61.365c-0.56,0.792,0.742,1.54,1.295,0.757
				c13.724-19.419,4.293-44.052-7.827-61.709c-12.94-18.855-33.675-28.999-56.228-30.304c-19.852-1.149-40.452,6.589-52.949,22.359
				c-12.563,15.852-11.918,36.568-2.654,53.803C108.86,110.411,110.155,109.653,109.697,108.801L109.697,108.801z"/>
		</g>
	</g>
	<g>
		<g>
			<path d="M158.522,166.968c6.723,1.884,13.212-0.677,19.42-3.168c0.886-0.355,0.5-1.807-0.398-1.446
				c-5.921,2.376-12.183,4.973-18.623,3.168C157.988,165.26,157.592,166.708,158.522,166.968L158.522,166.968z"/>
		</g>
	</g>
	<g>
		<g>
			<path d="M141.285,114.995c0.353-0.352,0.704-0.705,1.057-1.057c0.685-0.685-0.376-1.745-1.061-1.061
				c-0.353,0.352-0.704,0.705-1.057,1.057C139.54,114.619,140.601,115.679,141.285,114.995L141.285,114.995z"/>
		</g>
	</g>
	<g>
		<g>
			<path d="M131.925,117.226c4.036,2.49,8.419,0.503,10.534-3.439c0.457-0.852-0.838-1.609-1.295-0.757
				c-1.734,3.232-5.123,4.973-8.481,2.901C131.856,115.421,131.104,116.719,131.925,117.226L131.925,117.226z"/>
		</g>
	</g>
	<g>
		<g>
			<path d="M159.131,180.366c2.438,4.633,6.539,5.482,11.418,4.57c0.95-0.178,0.547-1.623-0.398-1.446
				c-4.214,0.788-7.614,0.13-9.725-3.88C159.976,178.752,158.681,179.511,159.131,180.366L159.131,180.366z"/>
		</g>
	</g>
	<g>
		<g>
			<path d="M151.657,192.866c0.949,6.534-0.145,13.088-4.148,18.445c-0.58,0.776,0.724,1.522,1.295,0.758
				c4.259-5.699,5.306-12.676,4.301-19.602C152.966,191.513,151.521,191.92,151.657,192.866L151.657,192.866z"/>
		</g>
	</g>
	<g>
		<g>
			<path d="M181.247,195.639c-0.884,5.7-0.174,11.034,5.628,13.527c0.879,0.378,1.644-0.914,0.758-1.295
				c-5.149-2.212-5.723-6.784-4.938-11.834C182.841,195.092,181.396,194.686,181.247,195.639L181.247,195.639z"/>
		</g>
	</g>
	<g>
		<g>
			<path d="M124.521,222.667c-12.854,9.879-36.344,4.157-44.027,20.672c-1.349,2.898-7.158,26.575,2.518,21.837
				c0.868-0.426,0.107-1.719-0.758-1.295c-4.854,2.377-3.223-9.729-2.896-11.645c0.985-5.784,3.146-11.813,8.156-15.206
				c11.339-7.676,26.637-4.516,37.765-13.068C126.034,223.381,125.289,222.078,124.521,222.667L124.521,222.667z"/>
		</g>
	</g>
	<g>
		<g>
			<path d="M216.645,227.208c10.08,3.212,45.201,26.058,26.242,36.674c-0.844,0.473-0.088,1.769,0.758,1.295
				c20.989-11.754-15.57-35.9-26.602-39.416C216.119,225.466,215.727,226.915,216.645,227.208L216.645,227.208z"/>
		</g>
	</g>
	<g>
		<g>
			<path d="M135.88,264.15c-4.001,8.431,8.183,19.929,14.01,24.279c7.011,5.233,17.104,6.887,25.601,7.256
				c18.267,0.792,38.25-8.069,36.824-29.041c-0.065-0.96-1.565-0.966-1.5,0c1.295,19.041-15.604,27.152-32.271,27.569
				c-7.965,0.199-16.15-1.296-23.419-4.585c-4.339-1.963-7.793-5.022-10.974-8.521c-3.177-3.496-9.432-11.025-6.977-16.199
				C137.587,264.039,136.294,263.277,135.88,264.15L135.88,264.15z"/>
		</g>
	</g>
	<g>
		<g>
			<path d="M190.43,256.383c-12.515-1.24-25.221-2.043-37.792-1.434c-4.641,0.226-21.669,1.617-13.37,9.603
				c4.962,4.774,11.894,6.793,18.411,8.304c9.627,2.231,19.651,3.227,29.521,3.275c6.889,0.033,15.669-0.128,21.261-4.822
				c4.451-3.737,4.642-9.335-1.489-11.438c-2.302-0.789-4.615-1.147-7.028-1.375c-0.963-0.091-0.954,1.41,0,1.5
				c3.537,0.333,11.692,1.296,10.304,6.699c-0.923,3.591-5.914,5.642-9.082,6.544c-7.147,2.038-15.233,1.555-22.559,1.086
				c-8.321-0.532-16.668-1.78-24.72-3.966c-5.199-1.411-11.455-3.778-14.83-8.255c-4.267-5.66,19.832-5.838,22.237-5.83
				c9.719,0.031,19.466,0.651,29.136,1.609C191.393,257.979,191.383,256.478,190.43,256.383L190.43,256.383z"/>
		</g>
	</g>
	<g>
		<g>
			<path d="M173.518,261.054c2.426,0.076,7.618,0.312,8.497-2.91c0.854-3.127-1.624-6.313-3.359-8.654
				c-2.905-3.923-6.368-7.412-9.555-11.101c-0.748-0.865-1.466-1.756-2.143-2.679c-1.234-1.68-0.721-1.302,1.272-1.773
				c4.336-1.026,8.572-2.438,12.883-3.557c0.507-0.132,0.778-0.892,0.331-1.254c-2.33-1.89-4.257-4.067-6.145-6.39
				c-1.575-1.938-5.397-4.744-1.583-6.096c0.587-0.208,0.779-1.033,0.18-1.371c-3.625-2.045-6.62-4.341-10.748-5.362
				c-0.066,0.491-0.133,0.982-0.199,1.474c3.07-0.176,6.923-1.257,7.087-4.976c0.043-0.967-1.458-0.963-1.5,0
				c-0.121,2.754-3.447,3.354-5.587,3.476c-0.819,0.047-1.053,1.262-0.199,1.474c4.063,1.005,6.862,3.221,10.389,5.21
				c0.061-0.457,0.12-0.914,0.18-1.371c-1.375,0.487-2.986,1.054-3.616,2.459c-0.144,0.319-0.135,0.644,0.117,0.909
				c3.62,3.825,6.441,8.281,10.564,11.625c0.11-0.418,0.221-0.836,0.331-1.254c-5.296,1.376-10.496,3.082-15.852,4.226
				c-0.37,0.079-0.667,0.558-0.524,0.923c1.813,4.632,6.474,8.455,9.679,12.11c2.176,2.48,4.317,5.043,5.874,7.966
				c2.623,4.926-2.586,5.516-6.374,5.396C172.55,259.524,172.553,261.024,173.518,261.054L173.518,261.054z"/>
		</g>
	</g>
	<g>
		<g>
			<path d="M208.922,264.004c3.528-4.372,9.158-6.1,14.463-7.205c-0.308-0.175-0.615-0.35-0.923-0.524
				c0.759,2.556,0.805,5.271,0.749,7.918c-0.031,1.44-0.182,2.876-0.449,4.291c-0.231,1.226-2.603-0.301-3.605-0.448
				c-0.945-0.138-1.353,1.307-0.398,1.447c1.529,0.224,2.848,0.956,4.428,1.083c0.334,0.026,0.634-0.249,0.724-0.551
				c1.284-4.335,1.285-9.804,0-14.139c-0.122-0.41-0.517-0.608-0.923-0.524c-5.53,1.153-11.449,3.037-15.125,7.592
				C207.26,263.689,208.314,264.757,208.922,264.004L208.922,264.004z"/>
		</g>
	</g>
	<g>
		<g>
			<path d="M217.223,273.635c4.47-2.468,6.059,0.631,6.961,4.641c0.425,1.887,0.656,1.494-0.979,2.648
				c-0.925,0.652-1.822,1.339-2.661,2.099c-0.391,0.354-0.225,1.164,0.331,1.254c5.831,0.938-2.702,6.59-4.455,7.264
				c-2.869,1.103-6.065,0.773-8.888-0.255c-0.911-0.331-1.3,1.119-0.398,1.447c4.396,1.6,9.572,1.274,13.365-1.675
				c1.245-0.968,4.497-3.571,4.497-5.393c0-1.749-2.368-2.617-3.723-2.836c0.11,0.418,0.221,0.836,0.331,1.254
				c1.258-1.141,2.668-2.107,4.076-3.054c0.306-0.206,0.399-0.492,0.345-0.847c-0.896-5.736-3.048-11.438-9.56-7.843
				C215.618,272.808,216.375,274.103,217.223,273.635L217.223,273.635z"/>
		</g>
	</g>
	<g>
		<g>
			<path d="M135.063,259.625c3.746-6.746-9.18-9.215-12.366-4.382c-4.91,7.446,5.928,16.204,12.574,17.406
				c0.945,0.171,1.35-1.275,0.398-1.447c-5.231-0.945-11.183-5.672-12.601-10.877c-1.013-3.713,2.078-5.937,5.342-6.068
				c2.608-0.106,7.277,1.153,5.357,4.61C133.299,259.713,134.594,260.47,135.063,259.625L135.063,259.625z"/>
		</g>
	</g>
	<g>
		<g>
			<path d="M126.82,264.865c-3.762,1.152-7.51,2.778-9.797,6.124c-2.45,3.585,0.572,7.511,3.125,9.924
				c0.051-0.393,0.102-0.785,0.151-1.178c-1.14,0.714-4.15,0.658-3.518,2.962c0.646,2.347,6.017,4.708,7.968,5.542
				c5.305,2.27,11.067,1.305,13.481-4.307c0.378-0.879-0.914-1.644-1.295-0.758c-2.026,4.712-6.152,5.417-10.7,4.028
				c-2.449-0.748-4.691-2.247-6.667-3.832c-2.014-1.616,0.341-1.622,1.488-2.341c0.398-0.25,0.513-0.836,0.151-1.178
				c-2.857-2.702-4.913-5.92-1.924-9.353c1.942-2.23,5.206-3.353,7.934-4.188C128.141,266.03,127.748,264.582,126.82,264.865
				L126.82,264.865z"/>
		</g>
	</g>
	<g>
		<g>
			<path d="M80.826,277.213c0.057,11.633,1,23.238,1.057,34.871c0.005,0.967,1.505,0.968,1.5,0c-0.057-11.633-1-23.238-1.057-34.871
				C82.321,276.247,80.821,276.246,80.826,277.213L80.826,277.213z"/>
		</g>
	</g>
	<g>
		<g>
			<path d="M246.771,258.389c5.047,17.719-7.838,39.876,5.478,55.288c0.634,0.733,1.689-0.333,1.061-1.061
				c-12.853-14.877-0.171-37.35-5.091-54.626C247.953,257.062,246.506,257.458,246.771,258.389L246.771,258.389z"/>
		</g>
	</g>
	<g>
		<g>
			<path d="M121.352,287.134c-19.701,10.122-35.945,29.578-42.303,50.785c-2.737,9.132-2.89,18.979,0.324,27.994
				c1.197,3.357,3.511,7.675,7.52,8.057c9.723,0.926,17.64-14.507,21.497-21.229c6.967-12.14,12.961-25.592,16.263-39.23
				c0.53-2.189,0.963-4.449,0.998-6.707c0.016-0.968-1.484-0.967-1.5,0c-0.172,10.981-6.137,22.927-10.626,32.651
				c-4.964,10.752-11.264,24.712-21.484,31.51c-3.938,2.619-7.488,1.507-9.846-2.454c-4.761-7.999-4.345-18.775-2.408-27.479
				c4.87-21.896,22.61-42.475,42.323-52.603C122.97,287.987,122.211,286.693,121.352,287.134L121.352,287.134z"/>
		</g>
	</g>
	<g>
		<g>
			<path d="M199.186,298.347c1.118,12.325,2.316,24.554,6.782,36.195c2.796,7.289,7.632,14.018,12.399,20.121
				c6.052,7.747,22.808,25.328,32.025,11.518c2.953-4.424,1.973-10.691,0.886-15.528c-1.726-7.681-5.196-15.016-8.78-21.979
				c-6.294-12.232-13.828-24.758-23.011-35.082c-0.644-0.725-1.701,0.341-1.061,1.061c7.748,8.712,14.033,19.08,19.752,29.187
				c5.969,10.548,14.531,25.181,12.325,37.859c-1.049,6.028-6.832,9.022-12.546,7.47c-7.624-2.072-13.813-9.674-18.53-15.566
				c-4.699-5.868-9.14-12.477-12.014-19.458c-4.663-11.328-5.633-23.725-6.729-35.797
				C200.599,297.392,199.098,297.383,199.186,298.347L199.186,298.347z"/>
		</g>
	</g>
</g>
<g id="Layer_3">
	<g>
		<g>
			<path fill="#999999" d="M154.055,264.48c-1.598-1.531-2.932-2.223-5.097-2.503c-0.857-0.111-0.991,1.256-0.199,1.474
				c17.111,4.695,35.073,4.589,52.681,4.591c0.855,0,1.01-1.236,0.199-1.474c-11.854-3.46-24.34-5.614-36.708-5.73
				c-0.733-0.007-1.042,1.041-0.379,1.397c8.173,4.394,17.449,5.802,26.62,4.665c0.634-0.078,1.155-1.066,0.379-1.397
				c-6.941-2.958-14.484-4.333-21.932-5.295c-7.496-0.969-15.802-1.579-23.14,0.656c-0.722,0.221-0.708,1.221,0,1.447
				c4.18,1.331,8.357,2.176,12.745,2.308c0.722,0.021,1.059-1.068,0.379-1.397c-3.771-1.828-7.613-3.311-11.586-4.64
				c-0.604-0.201-1.222,0.565-0.847,1.103c6.753,9.688,20.307,6.199,30.312,6.076c-0.126-0.466-0.252-0.932-0.379-1.397
				c-1.813,1.022-3.238,2.092-4.718,3.54c-0.377,0.368-0.235,1.152,0.331,1.254c6.104,1.092,12.271,1.162,18.455,1.165
				c0.602,0,1.063-0.854,0.53-1.28c-10.121-8.085-23.349-2.025-34.376-6.962c-0.193,0.457-0.386,0.914-0.578,1.371
				c9.952,3.614,20.409,5.604,31.002,5.732c0-0.5,0-1,0-1.5c-9.479,0.067-18.986,0.99-28.326-1.115
				c-0.066,0.491-0.133,0.982-0.199,1.474c13.245-0.825,26.225,2.672,38.991-2.308c0.594-0.231,0.768-1.004,0.18-1.371
				c-6.812-4.253-14.319-5.759-22.256-4.641c0.133,0.482,0.266,0.965,0.398,1.447c1.873-0.317,3.583-0.912,5.507-1.114
				c0.94-0.099,0.987-1.501,0-1.5c-7.07,0.007-13.93,0.24-20.736,2.309c-0.81,0.246-0.657,1.464,0.199,1.474
				c1.838-0.105,3.614,0.24,5.327,1.037c0.879,0.378,1.644-0.914,0.758-1.295c-2.117-0.909-3.762-1.215-6.085-1.242
				c0.066,0.491,0.133,0.982,0.199,1.474c6.67-2.028,13.422-2.25,20.338-2.256c0-0.5,0-1,0-1.5
				c-2.033,0.214-3.899,0.828-5.905,1.167c-0.962,0.163-0.539,1.579,0.398,1.447c7.528-1.062,14.649,0.461,21.1,4.488
				c0.06-0.457,0.12-0.914,0.18-1.371c-12.631,4.928-25.499,1.438-38.593,2.255c-0.811,0.051-1.063,1.278-0.199,1.474
				c9.473,2.134,19.105,1.236,28.725,1.168c0.968-0.007,0.967-1.488,0-1.5c-10.467-0.127-20.772-2.108-30.604-5.68
				c-0.796-0.289-1.353,1.024-0.578,1.371c10.823,4.846,24.26-1.111,34.073,6.728c0.177-0.427,0.354-0.854,0.53-1.28
				c-6.048-0.003-12.084-0.043-18.057-1.112c0.11,0.418,0.221,0.836,0.331,1.254c1.352-1.322,2.771-2.378,4.415-3.306
				c0.649-0.366,0.364-1.406-0.379-1.397c-9.283,0.114-22.736,3.675-29.017-5.334c-0.282,0.367-0.564,0.734-0.847,1.103
				c3.841,1.284,7.578,2.719,11.227,4.487c0.127-0.466,0.253-0.932,0.379-1.397c-4.274-0.128-8.291-0.962-12.347-2.255
				c0,0.482,0,0.965,0,1.447c6.816-2.077,14.366-1.492,21.354-0.766c7.587,0.788,15.509,2.247,22.561,5.252
				c0.127-0.466,0.253-0.932,0.379-1.397c-8.908,1.104-17.912-0.186-25.862-4.46c-0.127,0.466-0.253,0.932-0.379,1.397
				c12.249,0.115,24.567,2.25,36.31,5.678c0.066-0.491,0.133-0.982,0.199-1.474c-17.475-0.002-35.3,0.123-52.282-4.538
				c-0.066,0.491-0.133,0.982-0.199,1.474c1.665,0.075,3.011,0.763,4.036,2.063C153.692,266.209,154.754,265.15,154.055,264.48
				L154.055,264.48z"/>
		</g>
	</g>
	<g>
		<g>
			<path fill="#999999" d="M150.594,279.08c0.417,0.748,0.307,1.706,0.338,2.525c0.021,0.584,0.616,0.913,1.129,0.647
				c0.889-0.5,1.809-0.937,2.759-1.308c-0.377-0.216-0.753-0.432-1.129-0.647c0.199,2.276-0.423,4.202-1.867,5.775
				c-0.344,0.479,0.121,1.123,0.647,1.129c5.329,0.057,9.452-2.455,13.887-5.167c-0.343-0.342-0.685-0.684-1.026-1.026
				c-1.375,1.958-2.065,4.165-3.176,6.265c-0.334,0.631,0.208,1.192,0.847,1.103c3.977-0.563,7.281-1.457,10.293-4.181
				c-0.393-0.303-0.785-0.605-1.178-0.909c-1.412,1.995-2.057,4.076-3.121,6.266c-0.219,0.45,0.032,1.203,0.647,1.129
				c4.457-0.537,9.763-1.87,12.757-5.34c-0.418-0.243-0.836-0.486-1.254-0.729c-0.7,1.705-1.229,3.465-1.901,5.181
				c-0.319,0.817,0.941,1.275,1.371,0.578c2.099-3.409,6.352-4.802,9.791-6.46c0.812-0.392,0.208-1.521-0.578-1.371
				c-1.97,0.378-2.705,1.647-4.561,2.283c-0.906,0.312-0.534,1.73,0.398,1.447c2.183-0.664,3.928-2.358,5.884-3.499
				c-0.304-0.393-0.606-0.785-0.909-1.178c-1.767,1.54-3.147,2.539-3.615,4.894c-0.188,0.95,1.126,1.313,1.447,0.398
				c0.523-1.489,2.568-2.587,4.037-2.898c-0.243-0.418-0.486-0.836-0.729-1.254c-0.834,0.753-1.751,1.394-2.609,2.113
				c-0.656,0.551,0.199,1.637,0.908,1.179c0.494-0.317,0.984-0.641,1.471-0.971c0.801-0.532,0.051-1.832-0.758-1.295
				c-0.485,0.33-0.976,0.653-1.47,0.97c0.303,0.393,0.606,0.785,0.909,1.178c0.86-0.722,1.772-1.358,2.609-2.113
				c0.593-0.535-0.04-1.399-0.729-1.254c-2.015,0.428-4.379,1.937-5.086,3.947c0.482,0.133,0.965,0.266,1.447,0.398
				c0.429-2.163,1.804-2.988,3.229-4.231c0.654-0.57-0.187-1.599-0.909-1.178c-1.785,1.041-3.527,2.74-5.524,3.347
				c0.133,0.482,0.266,0.965,0.398,1.447c1.696-0.582,2.61-1.91,4.561-2.283c-0.192-0.457-0.385-0.914-0.578-1.371
				c-3.74,1.804-8.053,3.302-10.328,6.997c0.457,0.193,0.914,0.386,1.371,0.578c0.671-1.716,1.2-3.475,1.901-5.181
				c0.285-0.696-0.781-1.277-1.254-0.729c-2.375,2.752-8.082,4.465-11.696,4.9c0.216,0.376,0.432,0.752,0.647,1.129
				c1.029-2.118,1.747-4.326,3.121-6.266c0.515-0.728-0.575-1.454-1.178-0.909c-2.826,2.556-6.002,3.28-9.631,3.794
				c0.282,0.367,0.564,0.735,0.847,1.103c1.103-2.085,1.81-4.32,3.176-6.265c0.442-0.629-0.41-1.403-1.026-1.026
				c-4.138,2.53-8.088,5.016-13.129,4.962c0.216,0.376,0.432,0.752,0.647,1.129c1.59-2.217,2.343-3.836,2.072-6.533
				c-0.061-0.604-0.582-0.884-1.129-0.647c-0.95,0.371-1.869,0.807-2.759,1.308c0.377,0.216,0.753,0.432,1.129,0.647
				c-0.043-1.155,0.026-2.261-0.543-3.283C151.418,277.477,150.122,278.234,150.594,279.08L150.594,279.08z"/>
		</g>
	</g>
	<g>
		<g>
			<path fill="#999999" d="M173.64,254.941c0.924-5.96-1.846-10.047-5.248-14.668c-2.32-3.15-3.994-6.355-4.107-10.355
				c-0.102-3.625,12.001-1.29,14.139-0.692c0.86,0.24,1.248-0.898,0.578-1.371c-4.426-3.12-8.127-7.146-12.552-10.268
				c-0.193,0.457-0.386,0.914-0.578,1.371c4.086,0.834,9.342,1.351,10.857-3.494c1.557-4.978-2.191-11.577-4.305-15.86
				c-0.428-0.868-1.722-0.107-1.295,0.757c1.635,3.313,3.126,6.681,3.987,10.284c1.597,6.678-3.176,8.024-8.847,6.866
				c-0.854-0.174-1.274,0.879-0.578,1.371c4.425,3.122,8.125,7.147,12.552,10.268c0.193-0.457,0.386-0.914,0.578-1.371
				c-4.841-1.353-10.05-1.163-15.03-1.166c-0.301,0-0.678,0.227-0.724,0.551c-0.646,4.574,0.368,8.318,2.845,12.18
				c3.169,4.943,7.276,8.78,6.28,15.2C172.046,255.488,173.491,255.895,173.64,254.941L173.64,254.941z"/>
		</g>
	</g>
	<g>
		<g>
			<path fill="#999999" d="M29.168,190.463c22.899-1.083,46.063-0.006,68.651-4.59c0.948-0.192,0.546-1.638-0.398-1.446
				c-22.453,4.557-45.491,3.46-68.253,4.537C28.205,189.009,28.2,190.509,29.168,190.463L29.168,190.463z"/>
		</g>
	</g>
	<g>
		<g>
			<path fill="#999999" d="M242.51,183.619c10.438-0.07,34.582-2.145,35.494-16.466c0.942-14.789-25.477-14.718-35.115-15.865
				c0,0.5,0,1,0,1.5c13.507,0.374,26.746-3.344,40.197-4.169c8.255-0.506,19.95-0.337,26.721-5.929
				c11.912-9.838-4.713-18.727-12.857-22.87c-6.687-3.402-13.769-6.246-20.018-10.442c-3.178-2.134-5.348-5.117-5.767-9.049
				c-0.499-4.684,5.761-6.646,9.105-7.97c7.377-2.921,14.328-6.258,17.282-14.199c1.73-4.652-2.606-7.777-6.838-5.897
				c-2.897,1.286-4.656,3.602-5.577,6.589c-0.285,0.927,1.163,1.32,1.447,0.398c0.974-3.159,5.47-8.397,9.163-5.248
				c3.886,3.314-4.58,11.139-6.961,12.738c-5.32,3.573-12.535,4.222-17.256,8.688c-3.525,3.335-1.429,9.144,1.191,12.331
				c3.526,4.289,9.864,6.7,14.698,9.064c7.161,3.502,33.662,13.236,22.055,24.204c-6.787,6.414-20.22,5.714-28.861,6.244
				c-12.65,0.775-25.001,4.37-37.726,4.018c-0.99-0.027-0.934,1.389,0,1.5c8.569,1.021,33.315,0.933,33.675,13.431
				c0.396,13.816-24.565,15.836-34.054,15.9C241.543,182.125,241.542,183.625,242.51,183.619L242.51,183.619z"/>
		</g>
	</g>
	<g>
		<g>
			<path fill="#999999" d="M88.494,187.823c-19.734-2.269-38.949-6.949-57.984-12.523c0,0.482,0,0.964,0,1.446
				c9.853-3.536,20.474-4.851,28.852-11.602c0.328-0.264,0.254-0.785,0-1.061c-4.408-4.796-9.973-7.94-15.418-11.4
				c-3.475-2.208-6.647-4.724-9.381-7.807c-3.251-3.667-4.661-8.487-6.19-13.039c-1.207-3.592-2.337-7.233-3.88-10.701
				c-1.405-3.16-6.725-9.181-3.841-11.855c6.534-6.06,14.062-10.924,20.458-17.152c0.354-0.344,0.254-0.927-0.151-1.178
				c-5.747-3.551-10.994-7.71-15.821-12.432c-0.263-0.257-0.592-0.255-0.909-0.117c-2.516,1.09-3.485,3.129-5.705,4.563
				c-0.809,0.522-0.058,1.822,0.758,1.295c2.953-1.908,3.773-5.584,7.391-2.198c3.682,3.446,7.758,6.469,11.975,9.223
				c1.209,0.79-8.861,8.581-10.006,9.48c-3.932,3.092-7.822,6.206-11.409,9.698c-0.222,0.215-0.313,0.645-0.117,0.909
				c5.656,7.613,8.153,16.39,11.309,25.184c2.297,6.401,5.966,11.03,11.384,15.117c2.893,2.182,6.078,3.981,9.141,5.908
				c1.859,1.17,3.651,2.424,5.383,3.778c1.677,1.311,4.358,2.552,1.631,4.497c-7.483,5.337-17.368,6.399-25.849,9.443
				c-0.682,0.245-0.746,1.228,0,1.446c19.167,5.612,38.514,10.293,58.383,12.577C89.454,189.433,89.443,187.932,88.494,187.823
				L88.494,187.823z"/>
		</g>
	</g>
</g>
<g id="Layer_4" display="none">
</g>
</svg>
