<?xml version="1.0" standalone="no"?>
<!DOCTYPE svg PUBLIC "-//W3C//DTD SVG 20010904//EN"
 "http://www.w3.org/TR/2001/REC-SVG-20010904/DTD/svg10.dtd">
<svg version="1.0" xmlns="http://www.w3.org/2000/svg"
 width="669.000000pt" height="669.000000pt" viewBox="0 0 669.000000 669.000000"
 preserveAspectRatio="xMidYMid meet">
<metadata>
Created by potrace 1.11, written by Peter Selinger 2001-2013
</metadata>
<g transform="translate(0.000000,669.000000) scale(0.100000,-0.100000)"
fill="#000000" stroke="none">
<path d="M2244 5583 c1 -610 -2 -1115 -5 -1123 -6 -13 -140 -15 -1123 -14
l-1116 1 0 -1104 c0 -1043 1 -1103 18 -1104 9 0 511 -1 1115 -1 756 0 1099 -4
1104 -11 3 -6 6 -509 6 -1119 l0 -1108 1104 0 1103 0 1 23 c0 12 1 514 1 1114
0 798 4 1093 12 1094 6 1 508 2 1116 3 l1105 1 3 1107 2 1107 -1102 0 c-607 1
-1110 1 -1119 1 -15 0 -17 88 -17 1098 0 603 -1 1107 -1 1120 l-1 22 -1103 0
-1104 0 1 -1107z"/>
</g>
</svg>
